<svg width="41" height="40" viewBox="0 0 41 40" fill="none" xmlns="http://www.w3.org/2000/svg">
<g clip-path="url(#clip0_21_9959)">
<g clip-path="url(#clip1_21_9959)">
<mask id="mask0_21_9959" style="mask-type:luminance" maskUnits="userSpaceOnUse" x="0" y="0" width="41" height="40">
<path d="M0.618164 0H40.6182V40H0.618164V0Z" fill="white"/>
</mask>
<g mask="url(#mask0_21_9959)">
<path d="M20.6177 3.81445C11.6917 3.81445 4.42969 11.0745 4.42969 20.0005C4.42969 28.9265 11.6917 36.1865 20.6177 36.1865C29.5417 36.1865 36.8037 28.9265 36.8037 20.0005C36.8037 11.0745 29.5437 3.81445 20.6177 3.81445ZM20.7357 19.3205C23.5877 19.7085 25.5957 21.7525 25.5957 24.2925C25.5934 25.4924 25.1583 26.6513 24.3702 27.5562C23.5821 28.4612 22.494 29.0514 21.3057 29.2185V30.7785C21.3057 30.9615 21.233 31.137 21.1036 31.2664C20.9742 31.3958 20.7987 31.4685 20.6157 31.4685C20.4327 31.4685 20.2572 31.3958 20.1278 31.2664C19.9984 31.137 19.9257 30.9615 19.9257 30.7785V29.2185C18.7374 29.0514 17.6493 28.4612 16.8612 27.5562C16.0731 26.6513 15.638 25.4924 15.6357 24.2925C15.6357 24.1095 15.7084 23.934 15.8378 23.8046C15.9672 23.6751 16.1427 23.6025 16.3257 23.6025C16.5087 23.6025 16.6842 23.6751 16.8136 23.8046C16.943 23.934 17.0157 24.1095 17.0157 24.2925C17.0157 26.2225 18.5457 27.7985 20.4557 27.8845C20.5609 27.8593 20.6705 27.8593 20.7757 27.8845C21.7009 27.8428 22.5745 27.4464 23.2151 26.7775C23.8557 26.1086 24.2141 25.2186 24.2157 24.2925C24.2157 22.1445 22.3617 20.9325 20.5237 20.6845C17.4977 20.1565 15.6357 18.2525 15.6357 15.7105C15.6357 13.1985 17.5057 11.1205 19.9257 10.7825V9.22445C19.9257 9.04145 19.9984 8.86595 20.1278 8.73655C20.2572 8.60715 20.4327 8.53445 20.6157 8.53445C20.7987 8.53445 20.9742 8.60715 21.1036 8.73655C21.233 8.86595 21.3057 9.04145 21.3057 9.22445V10.7825C22.4943 10.9496 23.5827 11.5401 24.3708 12.4454C25.159 13.3508 25.5939 14.5101 25.5957 15.7105C25.5957 15.8935 25.523 16.069 25.3936 16.1984C25.2642 16.3278 25.0887 16.4005 24.9057 16.4005C24.7227 16.4005 24.5472 16.3278 24.4178 16.1984C24.2884 16.069 24.2157 15.8935 24.2157 15.7105C24.2157 13.7785 22.6877 12.2005 20.7757 12.1165C20.6706 12.1421 20.5608 12.1421 20.4557 12.1165C18.5457 12.2025 17.0157 13.7785 17.0157 15.7105C17.0157 18.3845 19.6157 19.1265 20.7357 19.3205Z" fill="#ED711F"/>
<path d="M20.6182 0C9.59016 0 0.618164 8.972 0.618164 20C0.618164 31.028 9.59016 40 20.6182 40C31.6462 40 40.6182 31.028 40.6182 20C40.6182 8.972 31.6462 0 20.6182 0ZM20.6182 37.566C10.9322 37.566 3.05216 29.686 3.05216 20C3.05216 10.314 10.9322 2.434 20.6182 2.434C30.3042 2.434 38.1842 10.314 38.1842 20C38.1842 29.686 30.3042 37.566 20.6182 37.566Z" fill="#ED711F"/>
</g>
</g>
</g>
<defs>
<clipPath id="clip0_21_9959">
<rect width="40" height="40" fill="white" transform="translate(0.618164)"/>
</clipPath>
<clipPath id="clip1_21_9959">
<rect width="40" height="40" fill="white" transform="translate(0.618164)"/>
</clipPath>
</defs>
</svg>
