<svg width="41" height="40" viewBox="0 0 41 40" fill="none" xmlns="http://www.w3.org/2000/svg">
<g clip-path="url(#clip0_12_9895)">
<g clip-path="url(#clip1_12_9895)">
<path d="M39.9312 17.2765L29.2712 3.92849C29.0795 3.6873 28.8418 3.48663 28.5719 3.33815C28.3019 3.18966 28.0052 3.09633 27.6988 3.06358C27.3925 3.03082 27.0827 3.0593 26.7875 3.14735C26.4923 3.23541 26.2175 3.38128 25.9792 3.57649L23.8992 5.28049L15.8712 2.15649C15.5845 2.0455 15.2786 1.99259 14.9714 2.00083C14.6641 2.00907 14.3615 2.0783 14.0812 2.20449C13.5117 2.46189 13.0673 2.93433 12.8452 3.51849L8.07517 16.0885H2.79317C2.17317 16.0885 1.57717 16.3405 1.13717 16.7845C0.697172 17.2285 0.451172 17.8305 0.451172 18.4605V35.6285C0.451172 36.2585 0.699172 36.8605 1.13717 37.3045C1.57717 37.7485 2.17117 38.0005 2.79317 38.0005H33.5832C34.2032 38.0005 34.7992 37.7505 35.2372 37.3045C35.6772 36.8605 35.9232 36.2585 35.9232 35.6285V23.6085L39.5832 20.6085C40.0661 20.2089 40.373 19.6359 40.4381 19.0126C40.5031 18.3892 40.3211 17.7672 39.9312 17.2765ZM27.1712 5.74049C27.2727 5.66351 27.3949 5.61859 27.5221 5.61146C27.6493 5.60434 27.7757 5.63533 27.8852 5.70049C27.9949 5.76702 28.0828 5.8643 28.1378 5.98025C28.1928 6.09621 28.2126 6.22576 28.1947 6.35286C28.1768 6.47996 28.122 6.59902 28.0372 6.69529C27.9523 6.79156 27.841 6.86082 27.7172 6.89449C27.5934 6.92658 27.4629 6.92088 27.3424 6.8781C27.2219 6.83532 27.117 6.75744 27.0412 6.65449C26.9391 6.51539 26.8955 6.34182 26.9198 6.17098C26.9441 6.00013 27.0343 5.8456 27.1712 5.74049ZM14.9112 4.90249C14.9444 4.74625 15.0343 4.60787 15.1636 4.51406C15.2929 4.42024 15.4523 4.37764 15.6112 4.39449C15.7022 4.40482 15.79 4.43427 15.8688 4.4809C15.9476 4.52753 16.0157 4.59029 16.0685 4.66507C16.1214 4.73985 16.1579 4.82496 16.1756 4.91481C16.1933 5.00467 16.1918 5.09725 16.1712 5.18649C16.1534 5.26972 16.1193 5.34862 16.0709 5.41865C16.0226 5.48867 15.9608 5.54845 15.8893 5.59454C15.8177 5.64063 15.7378 5.67213 15.654 5.68722C15.5702 5.70231 15.4843 5.70071 15.4012 5.68249C15.2332 5.64343 15.0876 5.53943 14.9961 5.39325C14.9047 5.24707 14.8728 5.07061 14.9112 4.90249ZM14.9272 8.48449C15.6072 8.60849 16.3112 8.52249 16.9432 8.23649C17.5752 7.95249 18.1092 7.48049 18.4752 6.88649L20.8212 7.80049L12.6452 14.5005L14.9252 8.48649L14.9272 8.48449ZM3.80717 18.8325C4.06717 18.8325 4.30317 18.9925 4.40317 19.2365C4.45195 19.3559 4.46468 19.4869 4.4398 19.6135C4.41492 19.74 4.35352 19.8565 4.26317 19.9485C4.17326 20.0395 4.05814 20.1015 3.93265 20.1265C3.80716 20.1514 3.67707 20.1382 3.55917 20.0885C3.44109 20.0383 3.34039 19.9544 3.26962 19.8474C3.19885 19.7403 3.16114 19.6148 3.16117 19.4865C3.16117 19.1265 3.44917 18.8325 3.80717 18.8325ZM3.80717 35.2525C3.72181 35.252 3.63739 35.2346 3.55873 35.2015C3.48007 35.1683 3.40871 35.12 3.34872 35.0593C3.28873 34.9986 3.2413 34.9266 3.20912 34.8475C3.17694 34.7685 3.16065 34.6838 3.16117 34.5985C3.16117 34.2385 3.44917 33.9465 3.80717 33.9465C4.16317 33.9465 4.45117 34.2385 4.45117 34.5985C4.45117 34.9585 4.16317 35.2525 3.80717 35.2525ZM30.5172 34.5985C30.5172 34.9585 30.2272 35.2525 29.8712 35.2525H6.50717C6.42181 35.252 6.33739 35.2346 6.25873 35.2015C6.18007 35.1683 6.10871 35.12 6.04872 35.0593C5.98873 34.9986 5.9413 34.9266 5.90912 34.8475C5.87694 34.7685 5.86064 34.6838 5.86117 34.5985C5.86117 34.0465 5.64317 33.5185 5.25917 33.1285C5.06958 32.9358 4.8436 32.7826 4.59435 32.6779C4.34509 32.5732 4.07753 32.519 3.80717 32.5185C3.63513 32.5174 3.47052 32.4482 3.34943 32.326C3.22834 32.2038 3.16064 32.0385 3.16117 31.8665V22.2205C3.16117 21.8605 3.44917 21.5685 3.80717 21.5685C4.35117 21.5685 4.87317 21.3485 5.25717 20.9585C5.64317 20.5685 5.85917 20.0385 5.85917 19.4885C5.85917 19.1285 6.14917 18.8345 6.50517 18.8345H29.8712C30.2272 18.8345 30.5152 19.1265 30.5152 19.4885C30.5152 20.0385 30.7332 20.5685 31.1172 20.9585C31.5012 21.3465 32.0232 21.5665 32.5672 21.5685C32.9232 21.5685 33.2132 21.8605 33.2132 22.2205V31.8685C33.2132 32.2285 32.9232 32.5205 32.5672 32.5205C32.0232 32.5205 31.5012 32.7405 31.1172 33.1325C30.7332 33.5205 30.5172 34.0485 30.5172 34.5985ZM32.5692 35.2525C32.4838 35.252 32.3994 35.2346 32.3207 35.2015C32.2421 35.1683 32.1707 35.12 32.1107 35.0593C32.0507 34.9986 32.0033 34.9266 31.9711 34.8475C31.9389 34.7685 31.9226 34.6838 31.9232 34.5985C31.9232 34.2385 32.2132 33.9465 32.5692 33.9465C32.9252 33.9465 33.2152 34.2385 33.2152 34.5985C33.2152 34.9585 32.9252 35.2525 32.5692 35.2525ZM32.5692 20.1405C32.4838 20.14 32.3994 20.1226 32.3207 20.0895C32.2421 20.0563 32.1707 20.008 32.1107 19.9473C32.0507 19.8866 32.0033 19.8146 31.9711 19.7355C31.9389 19.6565 31.9226 19.5718 31.9232 19.4865C31.9232 19.1265 32.2132 18.8325 32.5692 18.8325C32.9252 18.8325 33.2152 19.1245 33.2152 19.4865C33.2152 19.8465 32.9252 20.1405 32.5692 20.1405ZM34.6032 16.3245C34.2861 16.1672 33.9371 16.0851 33.5832 16.0845H28.9112L30.0972 15.1285C30.2312 15.0189 30.3167 14.861 30.3354 14.689C30.3541 14.5169 30.3045 14.3443 30.1972 14.2085C30.1448 14.1418 30.0796 14.0862 30.0055 14.0449C29.9314 14.0035 29.8498 13.9774 29.7655 13.9679C29.6812 13.9584 29.5959 13.9658 29.5144 13.9896C29.433 14.0134 29.3571 14.0531 29.2912 14.1065L26.8432 16.0865H16.5932L25.3252 8.93249C25.8514 9.38428 26.5023 9.66574 27.1918 9.73966C27.8814 9.81359 28.5772 9.67648 29.1872 9.34649L34.6832 16.2245C34.6552 16.2545 34.6292 16.2885 34.6032 16.3245ZM37.7032 19.0045C37.6356 19.0553 37.5586 19.0923 37.4766 19.1132C37.3946 19.134 37.3093 19.1385 37.2256 19.1262C37.1419 19.1139 37.0615 19.0852 36.989 19.0416C36.9165 18.9981 36.8533 18.9406 36.8032 18.8725C36.7008 18.7336 36.6569 18.5602 36.6809 18.3894C36.7048 18.2186 36.7946 18.0639 36.9312 17.9585C36.9988 17.9069 37.076 17.8693 37.1583 17.8479C37.2406 17.8265 37.3263 17.8217 37.4104 17.8338C37.4946 17.846 37.5755 17.8747 37.6484 17.9184C37.7214 17.9621 37.7848 18.02 37.8352 18.0885C37.9379 18.2277 37.9819 18.4018 37.9575 18.5731C37.9332 18.7444 37.8426 18.8993 37.7052 19.0045H37.7032ZM29.2852 20.1385H7.09117C6.96117 20.7985 6.64117 21.4045 6.17117 21.8785C5.70399 22.3528 5.10573 22.6766 4.45317 22.8085V31.2745C5.10517 31.4065 5.70317 31.7305 6.17317 32.2045C6.64117 32.6805 6.96117 33.2845 7.09117 33.9445H29.2872C29.4172 33.2845 29.7372 32.6805 30.2072 32.2045C30.6752 31.7305 31.2732 31.4045 31.9232 31.2745V22.8085C31.2713 22.6763 30.6738 22.3524 30.2072 21.8785C29.736 21.4016 29.416 20.7963 29.2872 20.1385H29.2852ZM9.81117 27.7005H7.19717C7.02513 27.6989 6.86073 27.6292 6.74001 27.5066C6.6193 27.384 6.55211 27.2185 6.55317 27.0465C6.55317 26.6865 6.84117 26.3925 7.19717 26.3925H9.81117C10.1672 26.3925 10.4552 26.6845 10.4552 27.0465C10.4552 27.4065 10.1672 27.7005 9.81117 27.7005ZM18.1872 32.5305C17.4742 32.5299 16.7685 32.3877 16.111 32.112C15.4535 31.8362 14.8573 31.4326 14.3572 30.9245C13.3389 29.89 12.7691 28.496 12.7712 27.0445C12.7712 25.5905 13.3432 24.1965 14.3572 23.1665C14.8574 22.6585 15.4535 22.2549 16.111 21.9792C16.7685 21.7035 17.4742 21.5612 18.1872 21.5605C19.6252 21.5605 21.0012 22.1405 22.0172 23.1665C23.0356 24.2003 23.6064 25.5933 23.6064 27.0445C23.6064 28.4957 23.0356 29.8887 22.0172 30.9225C21.517 31.4307 20.9209 31.8345 20.2634 32.1106C19.606 32.3866 18.9002 32.5293 18.1872 32.5305ZM29.1772 27.7005H26.5652C26.4798 27.7 26.3954 27.6826 26.3167 27.6495C26.2381 27.6163 26.1667 27.568 26.1067 27.5073C26.0467 27.4466 25.9993 27.3746 25.9671 27.2955C25.9349 27.2165 25.9186 27.1318 25.9192 27.0465C25.9192 26.6865 26.2092 26.3925 26.5652 26.3925H29.1772C29.5332 26.3925 29.8212 26.6845 29.8212 27.0465C29.8212 27.4065 29.5332 27.7005 29.1772 27.7005ZM18.1872 22.8685C17.0932 22.8685 16.0432 23.3085 15.2692 24.0905C14.4936 24.8787 14.0596 25.9407 14.0612 27.0465C14.0612 28.1545 14.4952 29.2185 15.2692 30.0005C15.6505 30.3879 16.105 30.6956 16.6063 30.9057C17.1075 31.1159 17.6456 31.2242 18.1892 31.2245C18.7317 31.2234 19.2687 31.1147 19.7689 30.9046C20.2691 30.6945 20.7226 30.3872 21.1032 30.0005C21.8797 29.2134 22.3151 28.1522 22.3151 27.0465C22.3151 25.9408 21.8797 24.8796 21.1032 24.0925C20.7221 23.7054 20.2679 23.3979 19.7669 23.1878C19.266 22.9777 18.7284 22.8691 18.1852 22.8685H18.1872ZM18.3392 26.4105C18.9012 26.5485 19.9492 26.8025 19.9492 28.1765V28.3205C19.9492 28.6781 19.8426 29.0277 19.6432 29.3245C19.4448 29.62 19.1618 29.8486 18.8312 29.9805V30.3785C18.8312 30.7385 18.5432 31.0305 18.1872 31.0305C18.0151 31.0294 17.8505 30.9602 17.7294 30.838C17.6083 30.7158 17.5406 30.5505 17.5412 30.3785V29.9805C17.2106 29.8485 16.9276 29.6199 16.7292 29.3245C16.5299 29.0275 16.4234 28.6781 16.4232 28.3205C16.4232 27.9605 16.7112 27.6685 17.0672 27.6685C17.4232 27.6685 17.7132 27.9605 17.7132 28.3205C17.7332 28.5705 17.9372 28.7605 18.1852 28.7605C18.3047 28.7598 18.4197 28.7142 18.5071 28.6327C18.5946 28.5511 18.6481 28.4397 18.6572 28.3205V28.1765C18.6572 27.8785 18.6572 27.8325 18.0332 27.6825C17.4712 27.5425 16.4232 27.2905 16.4232 25.9165V25.7725C16.4243 25.4162 16.5312 25.0683 16.7302 24.7728C16.9292 24.4773 17.2115 24.2475 17.5412 24.1125V23.7145C17.5412 23.3545 17.8292 23.0625 18.1852 23.0625C18.5432 23.0625 18.8312 23.3545 18.8312 23.7145V24.1125C19.1609 24.2475 19.4431 24.4773 19.6422 24.7728C19.8412 25.0683 19.948 25.4162 19.9492 25.7725C19.9492 26.1325 19.6612 26.4245 19.3052 26.4245C19.1331 26.4234 18.9685 26.3542 18.8474 26.232C18.7263 26.1098 18.6586 25.9445 18.6592 25.7725C18.6645 25.7066 18.6562 25.6402 18.6349 25.5776C18.6135 25.515 18.5796 25.4575 18.5352 25.4085C18.4685 25.3346 18.3802 25.2837 18.2829 25.263C18.1856 25.2423 18.0842 25.2529 17.9932 25.2933C17.9023 25.3337 17.8264 25.4017 17.7765 25.4878C17.7266 25.5739 17.7051 25.6735 17.7152 25.7725V25.9145C17.7152 26.2145 17.7152 26.2605 18.3392 26.4105Z" fill="#ED711F"/>
</g>
</g>
<defs>
<clipPath id="clip0_12_9895">
<rect width="40" height="40" fill="white" transform="translate(0.451172)"/>
</clipPath>
<clipPath id="clip1_12_9895">
<rect width="40" height="40" fill="white" transform="translate(0.451172)"/>
</clipPath>
</defs>
</svg>
