<svg width="41" height="40" viewBox="0 0 41 40" fill="none" xmlns="http://www.w3.org/2000/svg">
<g clip-path="url(#clip0_12_9903)">
<g clip-path="url(#clip1_12_9903)">
<mask id="mask0_12_9903" style="mask-type:luminance" maskUnits="userSpaceOnUse" x="0" y="0" width="41" height="40">
<path d="M0.844727 0H40.8447V40H0.844727V0Z" fill="white"/>
</mask>
<g mask="url(#mask0_12_9903)">
<path d="M20.8442 3.81445C11.9183 3.81445 4.65625 11.0745 4.65625 20.0005C4.65625 28.9265 11.9183 36.1865 20.8442 36.1865C29.7682 36.1865 37.0303 28.9265 37.0303 20.0005C37.0303 11.0745 29.7702 3.81445 20.8442 3.81445ZM20.9622 19.3205C23.8142 19.7085 25.8223 21.7525 25.8223 24.2925C25.82 25.4924 25.3848 26.6513 24.5967 27.5562C23.8087 28.4612 22.7205 29.0514 21.5322 29.2185V30.7785C21.5322 30.9615 21.4596 31.137 21.3302 31.2664C21.2008 31.3958 21.0252 31.4685 20.8422 31.4685C20.6593 31.4685 20.4837 31.3958 20.3543 31.2664C20.2249 31.137 20.1523 30.9615 20.1523 30.7785V29.2185C18.964 29.0514 17.8758 28.4612 17.0878 27.5562C16.2997 26.6513 15.8645 25.4924 15.8622 24.2925C15.8622 24.1095 15.9349 23.934 16.0643 23.8046C16.1937 23.6751 16.3693 23.6025 16.5522 23.6025C16.7352 23.6025 16.9108 23.6751 17.0402 23.8046C17.1696 23.934 17.2423 24.1095 17.2423 24.2925C17.2423 26.2225 18.7722 27.7985 20.6822 27.8845C20.7874 27.8593 20.8971 27.8593 21.0023 27.8845C21.9275 27.8428 22.8011 27.4464 23.4417 26.7775C24.0823 26.1086 24.4406 25.2186 24.4422 24.2925C24.4422 22.1445 22.5882 20.9325 20.7502 20.6845C17.7242 20.1565 15.8622 18.2525 15.8622 15.7105C15.8622 13.1985 17.7323 11.1205 20.1523 10.7825V9.22445C20.1523 9.04145 20.2249 8.86595 20.3543 8.73655C20.4837 8.60715 20.6593 8.53445 20.8422 8.53445C21.0252 8.53445 21.2008 8.60715 21.3302 8.73655C21.4596 8.86595 21.5322 9.04145 21.5322 9.22445V10.7825C22.7209 10.9496 23.8093 11.5401 24.5974 12.4454C25.3855 13.3508 25.8205 14.5101 25.8223 15.7105C25.8223 15.8935 25.7496 16.069 25.6202 16.1984C25.4908 16.3278 25.3152 16.4005 25.1322 16.4005C24.9493 16.4005 24.7737 16.3278 24.6443 16.1984C24.5149 16.069 24.4422 15.8935 24.4422 15.7105C24.4422 13.7785 22.9143 12.2005 21.0023 12.1165C20.8971 12.1421 20.7874 12.1421 20.6822 12.1165C18.7722 12.2025 17.2423 13.7785 17.2423 15.7105C17.2423 18.3845 19.8422 19.1265 20.9622 19.3205Z" fill="#ED711F"/>
<path d="M20.8447 0C9.81673 0 0.844727 8.972 0.844727 20C0.844727 31.028 9.81673 40 20.8447 40C31.8727 40 40.8447 31.028 40.8447 20C40.8447 8.972 31.8727 0 20.8447 0ZM20.8447 37.566C11.1587 37.566 3.27873 29.686 3.27873 20C3.27873 10.314 11.1587 2.434 20.8447 2.434C30.5307 2.434 38.4107 10.314 38.4107 20C38.4107 29.686 30.5307 37.566 20.8447 37.566Z" fill="#ED711F"/>
</g>
</g>
</g>
<defs>
<clipPath id="clip0_12_9903">
<rect width="40" height="40" fill="white" transform="translate(0.844727)"/>
</clipPath>
<clipPath id="clip1_12_9903">
<rect width="40" height="40" fill="white" transform="translate(0.844727)"/>
</clipPath>
</defs>
</svg>
