<svg width="90" height="87" viewBox="0 0 90 87" fill="none" xmlns="http://www.w3.org/2000/svg">
<g filter="url(#filter0_di_8_1676)">
<rect x="15.25" y="15.3691" width="50" height="50" rx="13" fill="#ED711F"/>
<g clip-path="url(#clip0_8_1676)">
<g clip-path="url(#clip1_8_1676)">
<g clip-path="url(#clip2_8_1676)">
<mask id="mask0_8_1676" style="mask-type:luminance" maskUnits="userSpaceOnUse" x="32" y="32" width="17" height="17">
<path d="M32.25 32.3691H48.25V48.3691H32.25V32.3691Z" fill="white"/>
</mask>
<g mask="url(#mask0_8_1676)">
<path d="M41.12 48.2051C41.041 48.2841 40.9403 48.3378 40.8308 48.3595C40.7212 48.3812 40.6076 48.37 40.5045 48.3271C40.4013 48.2843 40.3132 48.2119 40.2512 48.119C40.1892 48.026 40.1562 47.9168 40.1563 47.8051V33.8757C40.1563 33.7258 40.2158 33.5821 40.3218 33.4761C40.4278 33.3701 40.5715 33.3105 40.7214 33.3105C40.8713 33.3105 41.0151 33.3701 41.1211 33.4761C41.2271 33.5821 41.2866 33.7258 41.2866 33.8757V47.8051C41.2866 47.8794 41.272 47.953 41.2436 48.0216C41.2151 48.0902 41.1735 48.1526 41.121 48.2051H41.12Z" fill="white"/>
<path d="M48.0855 41.2392C48.0332 41.2919 47.9709 41.3338 47.9022 41.3622C47.8335 41.3906 47.7599 41.4051 47.6855 41.4048H33.7561C33.6063 41.4048 33.4627 41.3453 33.3568 41.2394C33.2509 41.1335 33.1914 40.9899 33.1914 40.8401C33.1914 40.6903 33.2509 40.5467 33.3568 40.4408C33.4627 40.3349 33.6063 40.2754 33.7561 40.2754H47.6855C47.7972 40.2753 47.9064 40.3083 47.9994 40.3703C48.0923 40.4323 48.1647 40.5205 48.2075 40.6236C48.2504 40.7268 48.2616 40.8403 48.2399 40.9499C48.2182 41.0595 48.1645 41.1601 48.0855 41.2392Z" fill="white"/>
</g>
</g>
</g>
</g>
</g>
<defs>
<filter id="filter0_di_8_1676" x="0.25" y="0.369141" width="90" height="90" filterUnits="userSpaceOnUse" color-interpolation-filters="sRGB">
<feFlood flood-opacity="0" result="BackgroundImageFix"/>
<feColorMatrix in="SourceAlpha" type="matrix" values="0 0 0 0 0 0 0 0 0 0 0 0 0 0 0 0 0 0 127 0" result="hardAlpha"/>
<feOffset dx="5" dy="5"/>
<feGaussianBlur stdDeviation="10"/>
<feComposite in2="hardAlpha" operator="out"/>
<feColorMatrix type="matrix" values="0 0 0 0 0.776471 0 0 0 0 0.34902 0 0 0 0 0.0627451 0 0 0 0.2 0"/>
<feBlend mode="normal" in2="BackgroundImageFix" result="effect1_dropShadow_8_1676"/>
<feBlend mode="normal" in="SourceGraphic" in2="effect1_dropShadow_8_1676" result="shape"/>
<feColorMatrix in="SourceAlpha" type="matrix" values="0 0 0 0 0 0 0 0 0 0 0 0 0 0 0 0 0 0 127 0" result="hardAlpha"/>
<feOffset dx="3" dy="3"/>
<feGaussianBlur stdDeviation="5"/>
<feComposite in2="hardAlpha" operator="arithmetic" k2="-1" k3="1"/>
<feColorMatrix type="matrix" values="0 0 0 0 1 0 0 0 0 1 0 0 0 0 1 0 0 0 0.3 0"/>
<feBlend mode="normal" in2="shape" result="effect2_innerShadow_8_1676"/>
</filter>
<clipPath id="clip0_8_1676">
<rect width="48" height="16" fill="white" transform="translate(16.25 32.3691)"/>
</clipPath>
<clipPath id="clip1_8_1676">
<rect width="16" height="16" fill="white" transform="translate(32.25 32.3691)"/>
</clipPath>
<clipPath id="clip2_8_1676">
<rect width="16" height="16" fill="white" transform="translate(32.25 32.3691)"/>
</clipPath>
</defs>
</svg>
