<svg width="91" height="87" viewBox="0 0 91 87" fill="none" xmlns="http://www.w3.org/2000/svg">
<g filter="url(#filter0_di_8_1324)">
<rect x="15.5" y="15.9219" width="50" height="50" rx="13" fill="#ED711F"/>
<g clip-path="url(#clip0_8_1324)">
<g clip-path="url(#clip1_8_1324)">
<g clip-path="url(#clip2_8_1324)">
<mask id="mask0_8_1324" style="mask-type:luminance" maskUnits="userSpaceOnUse" x="32" y="32" width="17" height="17">
<path d="M32.5 32.9219H48.5V48.9219H32.5V32.9219Z" fill="white"/>
</mask>
<g mask="url(#mask0_8_1324)">
<path d="M41.37 48.7579C41.291 48.8368 41.1903 48.8905 41.0808 48.9122C40.9712 48.934 40.8576 48.9227 40.7545 48.8799C40.6513 48.8371 40.5632 48.7646 40.5012 48.6717C40.4392 48.5788 40.4062 48.4696 40.4063 48.3579V34.4285C40.4063 34.2786 40.4658 34.1348 40.5718 34.0288C40.6778 33.9228 40.8215 33.8633 40.9714 33.8633C41.1213 33.8633 41.2651 33.9228 41.3711 34.0288C41.4771 34.1348 41.5366 34.2786 41.5366 34.4285V48.3579C41.5366 48.4322 41.522 48.5057 41.4936 48.5743C41.4651 48.643 41.4235 48.7053 41.371 48.7579H41.37Z" fill="white"/>
<path d="M48.3355 41.7919C48.2832 41.8447 48.2209 41.8865 48.1522 41.9149C48.0835 41.9434 48.0099 41.9579 47.9355 41.9575H34.0061C33.8563 41.9575 33.7127 41.898 33.6068 41.7921C33.5009 41.6862 33.4414 41.5426 33.4414 41.3928C33.4414 41.2431 33.5009 41.0994 33.6068 40.9935C33.7127 40.8876 33.8563 40.8281 34.0061 40.8281H47.9355C48.0472 40.828 48.1564 40.8611 48.2494 40.9231C48.3423 40.985 48.4147 41.0732 48.4575 41.1764C48.5004 41.2795 48.5116 41.3931 48.4899 41.5026C48.4682 41.6122 48.4145 41.7129 48.3355 41.7919Z" fill="white"/>
</g>
</g>
</g>
</g>
</g>
<defs>
<filter id="filter0_di_8_1324" x="0.5" y="0.921875" width="90" height="90" filterUnits="userSpaceOnUse" color-interpolation-filters="sRGB">
<feFlood flood-opacity="0" result="BackgroundImageFix"/>
<feColorMatrix in="SourceAlpha" type="matrix" values="0 0 0 0 0 0 0 0 0 0 0 0 0 0 0 0 0 0 127 0" result="hardAlpha"/>
<feOffset dx="5" dy="5"/>
<feGaussianBlur stdDeviation="10"/>
<feComposite in2="hardAlpha" operator="out"/>
<feColorMatrix type="matrix" values="0 0 0 0 0.776471 0 0 0 0 0.34902 0 0 0 0 0.0627451 0 0 0 0.2 0"/>
<feBlend mode="normal" in2="BackgroundImageFix" result="effect1_dropShadow_8_1324"/>
<feBlend mode="normal" in="SourceGraphic" in2="effect1_dropShadow_8_1324" result="shape"/>
<feColorMatrix in="SourceAlpha" type="matrix" values="0 0 0 0 0 0 0 0 0 0 0 0 0 0 0 0 0 0 127 0" result="hardAlpha"/>
<feOffset dx="3" dy="3"/>
<feGaussianBlur stdDeviation="5"/>
<feComposite in2="hardAlpha" operator="arithmetic" k2="-1" k3="1"/>
<feColorMatrix type="matrix" values="0 0 0 0 1 0 0 0 0 1 0 0 0 0 1 0 0 0 0.3 0"/>
<feBlend mode="normal" in2="shape" result="effect2_innerShadow_8_1324"/>
</filter>
<clipPath id="clip0_8_1324">
<rect width="48" height="16" fill="white" transform="translate(16.5 32.9219)"/>
</clipPath>
<clipPath id="clip1_8_1324">
<rect width="16" height="16" fill="white" transform="translate(32.5 32.9219)"/>
</clipPath>
<clipPath id="clip2_8_1324">
<rect width="16" height="16" fill="white" transform="translate(32.5 32.9219)"/>
</clipPath>
</defs>
</svg>
