<svg width="90" height="87" viewBox="0 0 90 87" fill="none" xmlns="http://www.w3.org/2000/svg">
<g filter="url(#filter0_di_8_1520)">
<rect x="15" y="15.4512" width="50" height="50" rx="13" fill="#ED711F"/>
<g clip-path="url(#clip0_8_1520)">
<g clip-path="url(#clip1_8_1520)">
<g clip-path="url(#clip2_8_1520)">
<mask id="mask0_8_1520" style="mask-type:luminance" maskUnits="userSpaceOnUse" x="32" y="32" width="16" height="17">
<path d="M32 32.4512H48V48.4512H32V32.4512Z" fill="white"/>
</mask>
<g mask="url(#mask0_8_1520)">
<path d="M40.87 48.2872C40.791 48.3661 40.6903 48.4198 40.5808 48.4415C40.4712 48.4633 40.3576 48.452 40.2545 48.4092C40.1513 48.3664 40.0632 48.2939 40.0012 48.201C39.9392 48.1081 39.9062 47.9989 39.9063 47.8872V33.9578C39.9063 33.8079 39.9658 33.6641 40.0718 33.5581C40.1778 33.4521 40.3215 33.3926 40.4714 33.3926C40.6213 33.3926 40.7651 33.4521 40.8711 33.5581C40.9771 33.6641 41.0366 33.8079 41.0366 33.9578V47.8872C41.0366 47.9615 41.022 48.035 40.9936 48.1036C40.9651 48.1723 40.9235 48.2346 40.871 48.2872H40.87Z" fill="white"/>
<path d="M47.8355 41.3212C47.7832 41.374 47.7209 41.4158 47.6522 41.4442C47.5835 41.4727 47.5099 41.4872 47.4355 41.4868H33.5061C33.3563 41.4868 33.2127 41.4273 33.1068 41.3214C33.0009 41.2155 32.9414 41.0719 32.9414 40.9221C32.9414 40.7724 33.0009 40.6287 33.1068 40.5228C33.2127 40.4169 33.3563 40.3574 33.5061 40.3574H47.4355C47.5472 40.3573 47.6564 40.3904 47.7494 40.4524C47.8423 40.5143 47.9147 40.6025 47.9575 40.7057C48.0004 40.8088 48.0116 40.9224 47.9899 41.0319C47.9682 41.1415 47.9145 41.2422 47.8355 41.3212Z" fill="white"/>
</g>
</g>
</g>
</g>
</g>
<defs>
<filter id="filter0_di_8_1520" x="0" y="0.451172" width="90" height="90" filterUnits="userSpaceOnUse" color-interpolation-filters="sRGB">
<feFlood flood-opacity="0" result="BackgroundImageFix"/>
<feColorMatrix in="SourceAlpha" type="matrix" values="0 0 0 0 0 0 0 0 0 0 0 0 0 0 0 0 0 0 127 0" result="hardAlpha"/>
<feOffset dx="5" dy="5"/>
<feGaussianBlur stdDeviation="10"/>
<feComposite in2="hardAlpha" operator="out"/>
<feColorMatrix type="matrix" values="0 0 0 0 0.776471 0 0 0 0 0.34902 0 0 0 0 0.0627451 0 0 0 0.2 0"/>
<feBlend mode="normal" in2="BackgroundImageFix" result="effect1_dropShadow_8_1520"/>
<feBlend mode="normal" in="SourceGraphic" in2="effect1_dropShadow_8_1520" result="shape"/>
<feColorMatrix in="SourceAlpha" type="matrix" values="0 0 0 0 0 0 0 0 0 0 0 0 0 0 0 0 0 0 127 0" result="hardAlpha"/>
<feOffset dx="3" dy="3"/>
<feGaussianBlur stdDeviation="5"/>
<feComposite in2="hardAlpha" operator="arithmetic" k2="-1" k3="1"/>
<feColorMatrix type="matrix" values="0 0 0 0 1 0 0 0 0 1 0 0 0 0 1 0 0 0 0.3 0"/>
<feBlend mode="normal" in2="shape" result="effect2_innerShadow_8_1520"/>
</filter>
<clipPath id="clip0_8_1520">
<rect width="48" height="16" fill="white" transform="translate(16 32.4512)"/>
</clipPath>
<clipPath id="clip1_8_1520">
<rect width="16" height="16" fill="white" transform="translate(32 32.4512)"/>
</clipPath>
<clipPath id="clip2_8_1520">
<rect width="16" height="16" fill="white" transform="translate(32 32.4512)"/>
</clipPath>
</defs>
</svg>
