<svg width="90" height="83" viewBox="0 0 90 83" fill="none" xmlns="http://www.w3.org/2000/svg">
<g filter="url(#filter0_di_8_1637)">
<rect x="15" y="15.8691" width="50" height="50" rx="13" fill="#ED711F"/>
<g clip-path="url(#clip0_8_1637)">
<g clip-path="url(#clip1_8_1637)">
<g clip-path="url(#clip2_8_1637)">
<mask id="mask0_8_1637" style="mask-type:luminance" maskUnits="userSpaceOnUse" x="32" y="32" width="16" height="17">
<path d="M32 32.8691H48V48.8691H32V32.8691Z" fill="white"/>
</mask>
<g mask="url(#mask0_8_1637)">
<path d="M40.87 48.7051C40.791 48.7841 40.6903 48.8378 40.5808 48.8595C40.4712 48.8812 40.3576 48.87 40.2545 48.8271C40.1513 48.7843 40.0632 48.7119 40.0012 48.619C39.9392 48.526 39.9062 48.4168 39.9063 48.3051V34.3757C39.9063 34.2258 39.9658 34.0821 40.0718 33.9761C40.1778 33.8701 40.3215 33.8105 40.4714 33.8105C40.6213 33.8105 40.7651 33.8701 40.8711 33.9761C40.9771 34.0821 41.0366 34.2258 41.0366 34.3757V48.3051C41.0366 48.3794 41.022 48.453 40.9936 48.5216C40.9651 48.5902 40.9235 48.6526 40.871 48.7051H40.87Z" fill="white"/>
<path d="M47.8355 41.7392C47.7832 41.7919 47.7209 41.8338 47.6522 41.8622C47.5835 41.8906 47.5099 41.9051 47.4355 41.9048H33.5061C33.3563 41.9048 33.2127 41.8453 33.1068 41.7394C33.0009 41.6335 32.9414 41.4899 32.9414 41.3401C32.9414 41.1903 33.0009 41.0467 33.1068 40.9408C33.2127 40.8349 33.3563 40.7754 33.5061 40.7754H47.4355C47.5472 40.7753 47.6564 40.8083 47.7494 40.8703C47.8423 40.9323 47.9147 41.0205 47.9575 41.1236C48.0004 41.2268 48.0116 41.3403 47.9899 41.4499C47.9682 41.5595 47.9145 41.6601 47.8355 41.7392Z" fill="white"/>
</g>
</g>
</g>
</g>
</g>
<defs>
<filter id="filter0_di_8_1637" x="0" y="0.869141" width="90" height="90" filterUnits="userSpaceOnUse" color-interpolation-filters="sRGB">
<feFlood flood-opacity="0" result="BackgroundImageFix"/>
<feColorMatrix in="SourceAlpha" type="matrix" values="0 0 0 0 0 0 0 0 0 0 0 0 0 0 0 0 0 0 127 0" result="hardAlpha"/>
<feOffset dx="5" dy="5"/>
<feGaussianBlur stdDeviation="10"/>
<feComposite in2="hardAlpha" operator="out"/>
<feColorMatrix type="matrix" values="0 0 0 0 0.776471 0 0 0 0 0.34902 0 0 0 0 0.0627451 0 0 0 0.2 0"/>
<feBlend mode="normal" in2="BackgroundImageFix" result="effect1_dropShadow_8_1637"/>
<feBlend mode="normal" in="SourceGraphic" in2="effect1_dropShadow_8_1637" result="shape"/>
<feColorMatrix in="SourceAlpha" type="matrix" values="0 0 0 0 0 0 0 0 0 0 0 0 0 0 0 0 0 0 127 0" result="hardAlpha"/>
<feOffset dx="3" dy="3"/>
<feGaussianBlur stdDeviation="5"/>
<feComposite in2="hardAlpha" operator="arithmetic" k2="-1" k3="1"/>
<feColorMatrix type="matrix" values="0 0 0 0 1 0 0 0 0 1 0 0 0 0 1 0 0 0 0.3 0"/>
<feBlend mode="normal" in2="shape" result="effect2_innerShadow_8_1637"/>
</filter>
<clipPath id="clip0_8_1637">
<rect width="48" height="16" fill="white" transform="translate(16 32.8691)"/>
</clipPath>
<clipPath id="clip1_8_1637">
<rect width="16" height="16" fill="white" transform="translate(32 32.8691)"/>
</clipPath>
<clipPath id="clip2_8_1637">
<rect width="16" height="16" fill="white" transform="translate(32 32.8691)"/>
</clipPath>
</defs>
</svg>
