<svg width="91" height="87" viewBox="0 0 91 87" fill="none" xmlns="http://www.w3.org/2000/svg">
<g filter="url(#filter0_di_8_1402)">
<rect x="15.5" y="15.9199" width="50" height="50" rx="13" fill="#ED711F"/>
<g clip-path="url(#clip0_8_1402)">
<g clip-path="url(#clip1_8_1402)">
<g clip-path="url(#clip2_8_1402)">
<mask id="mask0_8_1402" style="mask-type:luminance" maskUnits="userSpaceOnUse" x="32" y="32" width="17" height="17">
<path d="M32.5 32.9199H48.5V48.9199H32.5V32.9199Z" fill="white"/>
</mask>
<g mask="url(#mask0_8_1402)">
<path d="M41.37 48.7559C41.291 48.8348 41.1903 48.8886 41.0808 48.9103C40.9712 48.932 40.8576 48.9207 40.7545 48.8779C40.6513 48.8351 40.5632 48.7627 40.5012 48.6697C40.4392 48.5768 40.4062 48.4676 40.4063 48.3559V34.4265C40.4063 34.2766 40.4658 34.1329 40.5718 34.0269C40.6778 33.9209 40.8215 33.8613 40.9714 33.8613C41.1213 33.8613 41.2651 33.9209 41.3711 34.0269C41.4771 34.1329 41.5366 34.2766 41.5366 34.4265V48.3559C41.5366 48.4302 41.522 48.5038 41.4936 48.5724C41.4651 48.641 41.4235 48.7034 41.371 48.7559H41.37Z" fill="white"/>
<path d="M48.3355 41.7899C48.2832 41.8427 48.2209 41.8845 48.1522 41.913C48.0835 41.9414 48.0099 41.9559 47.9355 41.9556H34.0061C33.8563 41.9556 33.7127 41.8961 33.6068 41.7902C33.5009 41.6843 33.4414 41.5406 33.4414 41.3909C33.4414 41.2411 33.5009 41.0975 33.6068 40.9916C33.7127 40.8857 33.8563 40.8262 34.0061 40.8262H47.9355C48.0472 40.8261 48.1564 40.8591 48.2494 40.9211C48.3423 40.9831 48.4147 41.0712 48.4575 41.1744C48.5004 41.2776 48.5116 41.3911 48.4899 41.5007C48.4682 41.6102 48.4145 41.7109 48.3355 41.7899Z" fill="white"/>
</g>
</g>
</g>
</g>
</g>
<defs>
<filter id="filter0_di_8_1402" x="0.5" y="0.919922" width="90" height="90" filterUnits="userSpaceOnUse" color-interpolation-filters="sRGB">
<feFlood flood-opacity="0" result="BackgroundImageFix"/>
<feColorMatrix in="SourceAlpha" type="matrix" values="0 0 0 0 0 0 0 0 0 0 0 0 0 0 0 0 0 0 127 0" result="hardAlpha"/>
<feOffset dx="5" dy="5"/>
<feGaussianBlur stdDeviation="10"/>
<feComposite in2="hardAlpha" operator="out"/>
<feColorMatrix type="matrix" values="0 0 0 0 0.776471 0 0 0 0 0.34902 0 0 0 0 0.0627451 0 0 0 0.2 0"/>
<feBlend mode="normal" in2="BackgroundImageFix" result="effect1_dropShadow_8_1402"/>
<feBlend mode="normal" in="SourceGraphic" in2="effect1_dropShadow_8_1402" result="shape"/>
<feColorMatrix in="SourceAlpha" type="matrix" values="0 0 0 0 0 0 0 0 0 0 0 0 0 0 0 0 0 0 127 0" result="hardAlpha"/>
<feOffset dx="3" dy="3"/>
<feGaussianBlur stdDeviation="5"/>
<feComposite in2="hardAlpha" operator="arithmetic" k2="-1" k3="1"/>
<feColorMatrix type="matrix" values="0 0 0 0 1 0 0 0 0 1 0 0 0 0 1 0 0 0 0.3 0"/>
<feBlend mode="normal" in2="shape" result="effect2_innerShadow_8_1402"/>
</filter>
<clipPath id="clip0_8_1402">
<rect width="48" height="16" fill="white" transform="translate(16.5 32.9199)"/>
</clipPath>
<clipPath id="clip1_8_1402">
<rect width="16" height="16" fill="white" transform="translate(32.5 32.9199)"/>
</clipPath>
<clipPath id="clip2_8_1402">
<rect width="16" height="16" fill="white" transform="translate(32.5 32.9199)"/>
</clipPath>
</defs>
</svg>
