<svg width="55" height="29" viewBox="0 0 55 29" fill="none" xmlns="http://www.w3.org/2000/svg">
<g clip-path="url(#clip0_8_1656)">
<path fill-rule="evenodd" clip-rule="evenodd" d="M4.97341 6.32974C4.65776 6.32974 4.35454 6.456 4.13167 6.67983C3.90798 6.90437 3.78244 7.20844 3.78254 7.52539V18.0471C3.78166 18.204 3.81182 18.3595 3.87129 18.5046C3.93077 18.6498 4.01838 18.7817 4.12907 18.8929C4.23977 19.004 4.37136 19.0921 4.51627 19.1522C4.66119 19.2122 4.81655 19.243 4.97341 19.2428H15.454C15.7697 19.2428 16.0729 19.1165 16.2958 18.8927C16.5196 18.6679 16.6458 18.3637 16.6458 18.0471V12.308C16.6458 11.912 16.9653 11.5906 17.3604 11.5906C17.7545 11.5906 18.0749 11.912 18.0749 12.308V18.0471C18.0749 18.7454 17.7985 19.414 17.3068 19.9076C17.0639 20.1516 16.7751 20.3452 16.4572 20.4773C16.1392 20.6095 15.7983 20.6775 15.454 20.6776H4.97341C4.27802 20.6776 3.61228 20.4002 3.12063 19.9076C2.62852 19.4135 2.35232 18.7445 2.35254 18.0471V7.52539C2.35254 6.82713 2.62993 6.15852 3.12063 5.66496C3.36356 5.42096 3.65229 5.22734 3.97023 5.0952C4.28818 4.96306 4.6291 4.89501 4.97341 4.89496H10.6905C11.0846 4.89496 11.4051 5.21635 11.4051 5.61235C11.4051 6.00835 11.0846 6.32974 10.6905 6.32974H4.97341ZM13.7858 2.74278C13.7858 2.34678 14.1063 2.02539 14.5013 2.02539H20.2175C20.6125 2.02539 20.933 2.34678 20.933 2.74278V8.48191C20.933 8.87791 20.6125 9.1993 20.2185 9.1993C20.1244 9.19918 20.0312 9.18052 19.9444 9.1444C19.8575 9.10828 19.7786 9.0554 19.7121 8.98879C19.6457 8.92217 19.593 8.84312 19.5571 8.75615C19.5213 8.66918 19.5028 8.576 19.503 8.48191V3.46017H14.5004C14.3107 3.45941 14.1291 3.38347 13.9953 3.24898C13.8615 3.1145 13.7856 2.93246 13.7858 2.74278Z" fill="#ED711F"/>
<path fill-rule="evenodd" clip-rule="evenodd" d="M20.7241 2.23526C20.858 2.37002 20.9331 2.55227 20.9331 2.74222C20.9331 2.93218 20.858 3.11442 20.7241 3.24918L10.2425 13.7709C10.1763 13.8374 10.0976 13.8902 10.011 13.9262C9.92428 13.9623 9.83135 13.9808 9.7375 13.9808C9.64364 13.9808 9.55071 13.9623 9.46404 13.9262C9.37737 13.8902 9.29867 13.8374 9.23245 13.7709C9.09858 13.6362 9.02344 13.4539 9.02344 13.264C9.02344 13.074 9.09858 12.8918 9.23245 12.757L19.714 2.23526C19.7802 2.16875 19.8589 2.11596 19.9456 2.07995C20.0323 2.04393 20.1252 2.02539 20.2191 2.02539C20.3129 2.02539 20.4058 2.04393 20.4925 2.07995C20.5792 2.11596 20.6579 2.16875 20.7241 2.23526Z" fill="#ED711F"/>
</g>
<g clip-path="url(#clip1_8_1656)">
<g clip-path="url(#clip2_8_1656)">
<mask id="mask0_8_1656" style="mask-type:luminance" maskUnits="userSpaceOnUse" x="33" y="1" width="22" height="22">
<path d="M33.2803 1.06836H54.2424V22.1118H33.2803V1.06836Z" fill="white"/>
</mask>
<g mask="url(#mask0_8_1656)">
<path d="M43.763 3.60773C46.2251 1.42495 50.0292 1.49765 52.4004 3.84399C53.5346 4.95764 54.1938 6.46691 54.2402 8.05573C54.2866 9.64454 53.7164 11.1897 52.6491 12.3676L43.7602 21.1561L34.8741 12.3676C33.8069 11.1897 33.2367 9.64467 33.2829 8.05593C33.3291 6.46718 33.988 4.95789 35.1218 3.84399C37.4959 1.50052 41.2933 1.42208 43.763 3.60773Z" stroke="white" stroke-width="0.956522" stroke-linejoin="round"/>
</g>
</g>
</g>
<defs>
<clipPath id="clip0_8_1656">
<rect width="22" height="22" fill="white" transform="translate(0.5 0.589844)"/>
</clipPath>
<clipPath id="clip1_8_1656">
<rect width="22" height="22" fill="white" transform="translate(32.5 0.589844)"/>
</clipPath>
<clipPath id="clip2_8_1656">
<rect width="22" height="22" fill="white" transform="translate(32.5 0.589844)"/>
</clipPath>
</defs>
</svg>
