<svg width="55" height="29" viewBox="0 0 55 29" fill="none" xmlns="http://www.w3.org/2000/svg">
<g clip-path="url(#clip0_8_1578)">
<path fill-rule="evenodd" clip-rule="evenodd" d="M4.97341 5.80044C4.65776 5.80044 4.35454 5.9267 4.13167 6.15053C3.90798 6.37508 3.78244 6.67914 3.78254 6.99609V17.5178C3.78166 17.6747 3.81182 17.8302 3.87129 17.9753C3.93077 18.1205 4.01838 18.2524 4.12907 18.3636C4.23977 18.4747 4.37136 18.5628 4.51627 18.6229C4.66119 18.683 4.81655 18.7137 4.97341 18.7135H15.454C15.7697 18.7135 16.0729 18.5872 16.2958 18.3634C16.5196 18.1386 16.6458 17.8344 16.6458 17.5178V11.7787C16.6458 11.3827 16.9653 11.0613 17.3604 11.0613C17.7545 11.0613 18.0749 11.3827 18.0749 11.7787V17.5178C18.0749 18.2161 17.7985 18.8847 17.3068 19.3783C17.0639 19.6223 16.7751 19.8159 16.4572 19.948C16.1392 20.0802 15.7983 20.1482 15.454 20.1483H4.97341C4.27802 20.1483 3.61228 19.8709 3.12063 19.3783C2.62852 18.8842 2.35232 18.2152 2.35254 17.5178V6.99609C2.35254 6.29783 2.62993 5.62922 3.12063 5.13566C3.36356 4.89166 3.65229 4.69804 3.97023 4.5659C4.28818 4.43377 4.6291 4.36572 4.97341 4.36566H10.6905C11.0846 4.36566 11.4051 4.68705 11.4051 5.08305C11.4051 5.47905 11.0846 5.80044 10.6905 5.80044H4.97341ZM13.7858 2.21349C13.7858 1.81749 14.1063 1.49609 14.5013 1.49609H20.2175C20.6125 1.49609 20.933 1.81749 20.933 2.21349V7.95262C20.933 8.34862 20.6125 8.67001 20.2185 8.67001C20.1244 8.66988 20.0312 8.65123 19.9444 8.61511C19.8575 8.57899 19.7786 8.52611 19.7121 8.45949C19.6457 8.39288 19.593 8.31383 19.5571 8.22686C19.5213 8.13989 19.5028 8.0467 19.503 7.95262V2.93088H14.5004C14.3107 2.93012 14.1291 2.85417 13.9953 2.71969C13.8615 2.5852 13.7856 2.40316 13.7858 2.21349Z" fill="#ED711F"/>
<path fill-rule="evenodd" clip-rule="evenodd" d="M20.7241 1.70597C20.858 1.84073 20.9331 2.02297 20.9331 2.21292C20.9331 2.40288 20.858 2.58512 20.7241 2.71988L10.2425 13.2416C10.1763 13.3081 10.0976 13.3609 10.011 13.3969C9.92428 13.433 9.83135 13.4515 9.7375 13.4515C9.64364 13.4515 9.55071 13.433 9.46404 13.3969C9.37737 13.3609 9.29867 13.3081 9.23245 13.2416C9.09858 13.1069 9.02344 12.9246 9.02344 12.7347C9.02344 12.5447 9.09858 12.3625 9.23245 12.2277L19.714 1.70597C19.7802 1.63945 19.8589 1.58667 19.9456 1.55065C20.0323 1.51463 20.1252 1.49609 20.2191 1.49609C20.3129 1.49609 20.4058 1.51463 20.4925 1.55065C20.5792 1.58667 20.6579 1.63945 20.7241 1.70597Z" fill="#ED711F"/>
</g>
<g clip-path="url(#clip1_8_1578)">
<g clip-path="url(#clip2_8_1578)">
<mask id="mask0_8_1578" style="mask-type:luminance" maskUnits="userSpaceOnUse" x="33" y="0" width="22" height="22">
<path d="M33.2803 0.539062H54.2424V21.5825H33.2803V0.539062Z" fill="white"/>
</mask>
<g mask="url(#mask0_8_1578)">
<path d="M43.763 3.07844C46.2251 0.895655 50.0292 0.96835 52.4004 3.3147C53.5346 4.42834 54.1938 5.93761 54.2402 7.52643C54.2866 9.11525 53.7164 10.6604 52.6491 11.8383L43.7602 20.6268L34.8741 11.8383C33.8069 10.6604 33.2367 9.11538 33.2829 7.52663C33.3291 5.93789 33.988 4.42859 35.1218 3.3147C37.4959 0.97122 41.2933 0.892785 43.763 3.07844Z" stroke="white" stroke-width="0.956522" stroke-linejoin="round"/>
</g>
</g>
</g>
<defs>
<clipPath id="clip0_8_1578">
<rect width="22" height="22" fill="white" transform="translate(0.5 0.0605469)"/>
</clipPath>
<clipPath id="clip1_8_1578">
<rect width="22" height="22" fill="white" transform="translate(32.5 0.0605469)"/>
</clipPath>
<clipPath id="clip2_8_1578">
<rect width="22" height="22" fill="white" transform="translate(32.5 0.0605469)"/>
</clipPath>
</defs>
</svg>
