<svg width="55" height="29" viewBox="0 0 55 29" fill="none" xmlns="http://www.w3.org/2000/svg">
<g clip-path="url(#clip0_8_1735)">
<path fill-rule="evenodd" clip-rule="evenodd" d="M4.72341 6.32974C4.40776 6.32974 4.10454 6.456 3.88167 6.67983C3.65798 6.90437 3.53244 7.20844 3.53254 7.52539V18.0471C3.53166 18.204 3.56182 18.3595 3.62129 18.5046C3.68077 18.6498 3.76838 18.7817 3.87907 18.8929C3.98977 19.004 4.12136 19.0921 4.26627 19.1522C4.41119 19.2122 4.56655 19.243 4.72341 19.2428H15.204C15.5197 19.2428 15.8229 19.1165 16.0458 18.8927C16.2696 18.6679 16.3958 18.3637 16.3958 18.0471V12.308C16.3958 11.912 16.7153 11.5906 17.1104 11.5906C17.5045 11.5906 17.8249 11.912 17.8249 12.308V18.0471C17.8249 18.7454 17.5485 19.414 17.0568 19.9076C16.8139 20.1516 16.5251 20.3452 16.2072 20.4773C15.8892 20.6095 15.5483 20.6775 15.204 20.6776H4.72341C4.02802 20.6776 3.36228 20.4002 2.87063 19.9076C2.37852 19.4135 2.10232 18.7445 2.10254 18.0471V7.52539C2.10254 6.82713 2.37993 6.15852 2.87063 5.66496C3.11356 5.42096 3.40229 5.22734 3.72023 5.0952C4.03818 4.96306 4.3791 4.89501 4.72341 4.89496H10.4405C10.8346 4.89496 11.1551 5.21635 11.1551 5.61235C11.1551 6.00835 10.8346 6.32974 10.4405 6.32974H4.72341ZM13.5358 2.74278C13.5358 2.34678 13.8563 2.02539 14.2513 2.02539H19.9675C20.3625 2.02539 20.683 2.34678 20.683 2.74278V8.48191C20.683 8.87791 20.3625 9.1993 19.9685 9.1993C19.8744 9.19918 19.7812 9.18052 19.6944 9.1444C19.6075 9.10828 19.5286 9.0554 19.4621 8.98879C19.3957 8.92217 19.343 8.84312 19.3071 8.75615C19.2713 8.66918 19.2528 8.576 19.253 8.48191V3.46017H14.2504C14.0607 3.45941 13.8791 3.38347 13.7453 3.24898C13.6115 3.1145 13.5356 2.93246 13.5358 2.74278Z" fill="#ED711F"/>
<path fill-rule="evenodd" clip-rule="evenodd" d="M20.4741 2.23526C20.608 2.37002 20.6831 2.55227 20.6831 2.74222C20.6831 2.93218 20.608 3.11442 20.4741 3.24918L9.99254 13.7709C9.92633 13.8374 9.84762 13.8902 9.76095 13.9262C9.67428 13.9623 9.58135 13.9808 9.4875 13.9808C9.39364 13.9808 9.30071 13.9623 9.21404 13.9262C9.12737 13.8902 9.04867 13.8374 8.98245 13.7709C8.84858 13.6362 8.77344 13.4539 8.77344 13.264C8.77344 13.074 8.84858 12.8918 8.98245 12.757L19.464 2.23526C19.5302 2.16875 19.6089 2.11596 19.6956 2.07995C19.7823 2.04393 19.8752 2.02539 19.9691 2.02539C20.0629 2.02539 20.1558 2.04393 20.2425 2.07995C20.3292 2.11596 20.4079 2.16875 20.4741 2.23526Z" fill="#ED711F"/>
</g>
<g clip-path="url(#clip1_8_1735)">
<mask id="mask0_8_1735" style="mask-type:luminance" maskUnits="userSpaceOnUse" x="33" y="1" width="21" height="22">
<path d="M33.0303 1.06836H53.9924V22.1118H33.0303V1.06836Z" fill="white"/>
</mask>
<g mask="url(#mask0_8_1735)">
<path d="M43.513 3.60773C45.9751 1.42495 49.7792 1.49765 52.1504 3.84399C53.2846 4.95764 53.9438 6.46691 53.9902 8.05573C54.0366 9.64454 53.4664 11.1897 52.3991 12.3676L43.5102 21.1561L34.6241 12.3676C33.5569 11.1897 32.9867 9.64467 33.0329 8.05593C33.0791 6.46718 33.738 4.95789 34.8718 3.84399C37.2459 1.50052 41.0433 1.42208 43.513 3.60773Z" stroke="white" stroke-width="0.956522" stroke-linejoin="round"/>
</g>
</g>
<defs>
<clipPath id="clip0_8_1735">
<rect width="22" height="22" fill="white" transform="translate(0.25 0.589844)"/>
</clipPath>
<clipPath id="clip1_8_1735">
<rect width="22" height="22" fill="white" transform="translate(32.25 0.589844)"/>
</clipPath>
</defs>
</svg>
