<svg width="55" height="29" viewBox="0 0 55 29" fill="none" xmlns="http://www.w3.org/2000/svg">
<g clip-path="url(#clip0_8_1421)">
<path fill-rule="evenodd" clip-rule="evenodd" d="M4.97341 5.88052C4.65776 5.88052 4.35454 6.00678 4.13167 6.23061C3.90798 6.45516 3.78244 6.75922 3.78254 7.07617V17.5979C3.78166 17.7548 3.81182 17.9103 3.87129 18.0554C3.93077 18.2006 4.01838 18.3325 4.12907 18.4436C4.23977 18.5548 4.37136 18.6429 4.51627 18.703C4.66119 18.763 4.81655 18.7938 4.97341 18.7936H15.454C15.7697 18.7936 16.0729 18.6673 16.2958 18.4435C16.5196 18.2187 16.6458 17.9145 16.6458 17.5979V11.8588C16.6458 11.4628 16.9653 11.1414 17.3604 11.1414C17.7545 11.1414 18.0749 11.4628 18.0749 11.8588V17.5979C18.0749 18.2962 17.7985 18.9648 17.3068 19.4583C17.0639 19.7023 16.7751 19.896 16.4572 20.0281C16.1392 20.1602 15.7983 20.2283 15.454 20.2283H4.97341C4.27802 20.2283 3.61228 19.951 3.12063 19.4583C2.62852 18.9643 2.35232 18.2953 2.35254 17.5979V7.07617C2.35254 6.37791 2.62993 5.7093 3.12063 5.21574C3.36356 4.97174 3.65229 4.77812 3.97023 4.64598C4.28818 4.51384 4.6291 4.44579 4.97341 4.44574H10.6905C11.0846 4.44574 11.4051 4.76713 11.4051 5.16313C11.4051 5.55913 11.0846 5.88052 10.6905 5.88052H4.97341ZM13.7858 2.29356C13.7858 1.89756 14.1063 1.57617 14.5013 1.57617H20.2175C20.6125 1.57617 20.933 1.89756 20.933 2.29356V8.03269C20.933 8.42869 20.6125 8.75008 20.2185 8.75008C20.1244 8.74996 20.0312 8.7313 19.9444 8.69518C19.8575 8.65906 19.7786 8.60619 19.7121 8.53957C19.6457 8.47295 19.593 8.3939 19.5571 8.30693C19.5213 8.21996 19.5028 8.12678 19.503 8.03269V3.01095H14.5004C14.3107 3.01019 14.1291 2.93425 13.9953 2.79977C13.8615 2.66528 13.7856 2.48324 13.7858 2.29356Z" fill="#ED711F"/>
<path fill-rule="evenodd" clip-rule="evenodd" d="M20.7241 1.78605C20.858 1.9208 20.9331 2.10305 20.9331 2.293C20.9331 2.48296 20.858 2.6652 20.7241 2.79996L10.2425 13.3217C10.1763 13.3882 10.0976 13.441 10.011 13.477C9.92428 13.513 9.83135 13.5316 9.7375 13.5316C9.64364 13.5316 9.55071 13.513 9.46404 13.477C9.37737 13.441 9.29867 13.3882 9.23245 13.3217C9.09858 13.1869 9.02344 13.0047 9.02344 12.8147C9.02344 12.6248 9.09858 12.4425 9.23245 12.3078L19.714 1.78605C19.7802 1.71953 19.8589 1.66675 19.9456 1.63073C20.0323 1.59471 20.1252 1.57617 20.2191 1.57617C20.3129 1.57617 20.4058 1.59471 20.4925 1.63073C20.5792 1.66675 20.6579 1.71953 20.7241 1.78605Z" fill="#ED711F"/>
</g>
<g clip-path="url(#clip1_8_1421)">
<g clip-path="url(#clip2_8_1421)">
<mask id="mask0_8_1421" style="mask-type:luminance" maskUnits="userSpaceOnUse" x="33" y="0" width="22" height="22">
<path d="M33.2803 0.619141H54.2424V21.6626H33.2803V0.619141Z" fill="white"/>
</mask>
<g mask="url(#mask0_8_1421)">
<path d="M43.763 3.15852C46.2251 0.975733 50.0292 1.04843 52.4004 3.39478C53.5346 4.50842 54.1938 6.01769 54.2402 7.60651C54.2866 9.19532 53.7164 10.7405 52.6491 11.9183L43.7602 20.7069L34.8741 11.9183C33.8069 10.7405 33.2367 9.19546 33.2829 7.60671C33.3291 6.01796 33.988 4.50867 35.1218 3.39478C37.4959 1.0513 41.2933 0.972863 43.763 3.15852Z" stroke="white" stroke-width="0.956522" stroke-linejoin="round"/>
</g>
</g>
</g>
<defs>
<clipPath id="clip0_8_1421">
<rect width="22" height="22" fill="white" transform="translate(0.5 0.140625)"/>
</clipPath>
<clipPath id="clip1_8_1421">
<rect width="22" height="22" fill="white" transform="translate(32.5 0.140625)"/>
</clipPath>
<clipPath id="clip2_8_1421">
<rect width="22" height="22" fill="white" transform="translate(32.5 0.140625)"/>
</clipPath>
</defs>
</svg>
