<svg width="54" height="29" viewBox="0 0 54 29" fill="none" xmlns="http://www.w3.org/2000/svg">
<g clip-path="url(#clip0_8_1304)">
<path fill-rule="evenodd" clip-rule="evenodd" d="M4.47341 5.88052C4.15776 5.88052 3.85454 6.00678 3.63167 6.23061C3.40798 6.45516 3.28244 6.75922 3.28254 7.07617V17.5979C3.28166 17.7548 3.31182 17.9103 3.37129 18.0554C3.43077 18.2006 3.51838 18.3325 3.62907 18.4436C3.73977 18.5548 3.87136 18.6429 4.01627 18.703C4.16119 18.763 4.31655 18.7938 4.47341 18.7936H14.954C15.2697 18.7936 15.5729 18.6673 15.7958 18.4435C16.0196 18.2187 16.1458 17.9145 16.1458 17.5979V11.8588C16.1458 11.4628 16.4653 11.1414 16.8604 11.1414C17.2545 11.1414 17.5749 11.4628 17.5749 11.8588V17.5979C17.5749 18.2962 17.2985 18.9648 16.8068 19.4583C16.5639 19.7023 16.2751 19.896 15.9572 20.0281C15.6392 20.1602 15.2983 20.2283 14.954 20.2283H4.47341C3.77802 20.2283 3.11228 19.951 2.62063 19.4583C2.12852 18.9643 1.85232 18.2953 1.85254 17.5979V7.07617C1.85254 6.37791 2.12993 5.7093 2.62063 5.21574C2.86356 4.97174 3.15229 4.77812 3.47023 4.64598C3.78818 4.51384 4.1291 4.44579 4.47341 4.44574H10.1905C10.5846 4.44574 10.9051 4.76713 10.9051 5.16313C10.9051 5.55913 10.5846 5.88052 10.1905 5.88052H4.47341ZM13.2858 2.29356C13.2858 1.89756 13.6063 1.57617 14.0013 1.57617H19.7175C20.1125 1.57617 20.433 1.89756 20.433 2.29356V8.03269C20.433 8.42869 20.1125 8.75008 19.7185 8.75008C19.6244 8.74996 19.5312 8.7313 19.4444 8.69518C19.3575 8.65906 19.2786 8.60619 19.2121 8.53957C19.1457 8.47295 19.093 8.3939 19.0571 8.30693C19.0213 8.21996 19.0028 8.12678 19.003 8.03269V3.01095H14.0004C13.8107 3.01019 13.6291 2.93425 13.4953 2.79977C13.3615 2.66528 13.2856 2.48324 13.2858 2.29356Z" fill="#ED711F"/>
<path fill-rule="evenodd" clip-rule="evenodd" d="M20.2241 1.78605C20.358 1.9208 20.4331 2.10305 20.4331 2.293C20.4331 2.48296 20.358 2.6652 20.2241 2.79996L9.74254 13.3217C9.67633 13.3882 9.59762 13.441 9.51095 13.477C9.42428 13.513 9.33135 13.5316 9.2375 13.5316C9.14364 13.5316 9.05071 13.513 8.96404 13.477C8.87737 13.441 8.79867 13.3882 8.73245 13.3217C8.59858 13.1869 8.52344 13.0047 8.52344 12.8147C8.52344 12.6248 8.59858 12.4425 8.73245 12.3078L19.214 1.78605C19.2802 1.71953 19.3589 1.66675 19.4456 1.63073C19.5323 1.59471 19.6252 1.57617 19.7191 1.57617C19.8129 1.57617 19.9058 1.59471 19.9925 1.63073C20.0792 1.66675 20.1579 1.71953 20.2241 1.78605Z" fill="#ED711F"/>
</g>
<g clip-path="url(#clip1_8_1304)">
<mask id="mask0_8_1304" style="mask-type:luminance" maskUnits="userSpaceOnUse" x="32" y="0" width="22" height="22">
<path d="M32.7803 0.619141H53.7424V21.6626H32.7803V0.619141Z" fill="white"/>
</mask>
<g mask="url(#mask0_8_1304)">
<path d="M43.263 3.15852C45.7251 0.975733 49.5292 1.04843 51.9004 3.39478C53.0346 4.50842 53.6938 6.01769 53.7402 7.60651C53.7866 9.19532 53.2164 10.7405 52.1491 11.9183L43.2602 20.7069L34.3741 11.9183C33.3069 10.7405 32.7367 9.19546 32.7829 7.60671C32.8291 6.01796 33.488 4.50867 34.6218 3.39478C36.9959 1.0513 40.7933 0.972863 43.263 3.15852Z" stroke="white" stroke-width="0.956522" stroke-linejoin="round"/>
</g>
</g>
<defs>
<clipPath id="clip0_8_1304">
<rect width="22" height="22" fill="white" transform="translate(0 0.140625)"/>
</clipPath>
<clipPath id="clip1_8_1304">
<rect width="22" height="22" fill="white" transform="translate(32 0.140625)"/>
</clipPath>
</defs>
</svg>
