<svg width="54" height="57" viewBox="0 0 54 57" fill="none" xmlns="http://www.w3.org/2000/svg">
<g clip-path="url(#clip0_8_1500)">
<path fill-rule="evenodd" clip-rule="evenodd" d="M4.47341 5.80044C4.15776 5.80044 3.85454 5.9267 3.63167 6.15053C3.40798 6.37508 3.28244 6.67914 3.28254 6.99609V17.5178C3.28166 17.6747 3.31182 17.8302 3.37129 17.9753C3.43077 18.1205 3.51838 18.2524 3.62907 18.3636C3.73977 18.4747 3.87136 18.5628 4.01627 18.6229C4.16119 18.683 4.31655 18.7137 4.47341 18.7135H14.954C15.2697 18.7135 15.5729 18.5872 15.7958 18.3634C16.0196 18.1386 16.1458 17.8344 16.1458 17.5178V11.7787C16.1458 11.3827 16.4653 11.0613 16.8604 11.0613C17.2545 11.0613 17.5749 11.3827 17.5749 11.7787V17.5178C17.5749 18.2161 17.2985 18.8847 16.8068 19.3783C16.5639 19.6223 16.2751 19.8159 15.9572 19.948C15.6392 20.0802 15.2983 20.1482 14.954 20.1483H4.47341C3.77802 20.1483 3.11228 19.8709 2.62063 19.3783C2.12852 18.8842 1.85232 18.2152 1.85254 17.5178V6.99609C1.85254 6.29783 2.12993 5.62922 2.62063 5.13566C2.86356 4.89166 3.15229 4.69804 3.47023 4.5659C3.78818 4.43377 4.1291 4.36572 4.47341 4.36566H10.1905C10.5846 4.36566 10.9051 4.68705 10.9051 5.08305C10.9051 5.47905 10.5846 5.80044 10.1905 5.80044H4.47341ZM13.2858 2.21349C13.2858 1.81749 13.6063 1.49609 14.0013 1.49609H19.7175C20.1125 1.49609 20.433 1.81749 20.433 2.21349V7.95262C20.433 8.34862 20.1125 8.67001 19.7185 8.67001C19.6244 8.66988 19.5312 8.65123 19.4444 8.61511C19.3575 8.57899 19.2786 8.52611 19.2121 8.45949C19.1457 8.39288 19.093 8.31383 19.0571 8.22686C19.0213 8.13989 19.0028 8.0467 19.003 7.95262V2.93088H14.0004C13.8107 2.93012 13.6291 2.85417 13.4953 2.71969C13.3615 2.5852 13.2856 2.40316 13.2858 2.21349Z" fill="#ED711F"/>
<path fill-rule="evenodd" clip-rule="evenodd" d="M20.2241 1.70597C20.358 1.84073 20.4331 2.02297 20.4331 2.21292C20.4331 2.40288 20.358 2.58512 20.2241 2.71988L9.74254 13.2416C9.67633 13.3081 9.59762 13.3609 9.51095 13.3969C9.42428 13.433 9.33135 13.4515 9.2375 13.4515C9.14364 13.4515 9.05071 13.433 8.96404 13.3969C8.87737 13.3609 8.79867 13.3081 8.73245 13.2416C8.59858 13.1069 8.52344 12.9246 8.52344 12.7347C8.52344 12.5447 8.59858 12.3625 8.73245 12.2277L19.214 1.70597C19.2802 1.63945 19.3589 1.58667 19.4456 1.55065C19.5323 1.51463 19.6252 1.49609 19.7191 1.49609C19.8129 1.49609 19.9058 1.51463 19.9925 1.55065C20.0792 1.58667 20.1579 1.63945 20.2241 1.70597Z" fill="#ED711F"/>
</g>
<g clip-path="url(#clip1_8_1500)">
<mask id="mask0_8_1500" style="mask-type:luminance" maskUnits="userSpaceOnUse" x="32" y="0" width="22" height="22">
<path d="M32.7803 0.539062H53.7424V21.5825H32.7803V0.539062Z" fill="white"/>
</mask>
<g mask="url(#mask0_8_1500)">
<path d="M43.263 3.07844C45.7251 0.895655 49.5292 0.96835 51.9004 3.3147C53.0346 4.42834 53.6938 5.93761 53.7402 7.52643C53.7866 9.11525 53.2164 10.6604 52.1491 11.8383L43.2602 20.6268L34.3741 11.8383C33.3069 10.6604 32.7367 9.11538 32.7829 7.52663C32.8291 5.93789 33.488 4.42859 34.6218 3.3147C36.9959 0.97122 40.7933 0.892785 43.263 3.07844Z" stroke="white" stroke-width="0.956522" stroke-linejoin="round"/>
</g>
</g>
<defs>
<clipPath id="clip0_8_1500">
<rect width="22" height="22" fill="white" transform="translate(0 0.0605469)"/>
</clipPath>
<clipPath id="clip1_8_1500">
<rect width="22" height="22" fill="white" transform="translate(32 0.0605469)"/>
</clipPath>
</defs>
</svg>
