<svg width="54" height="29" viewBox="0 0 54 29" fill="none" xmlns="http://www.w3.org/2000/svg">
<g clip-path="url(#clip0_8_1617)">
<path fill-rule="evenodd" clip-rule="evenodd" d="M4.47341 6.32974C4.15776 6.32974 3.85454 6.456 3.63167 6.67983C3.40798 6.90437 3.28244 7.20844 3.28254 7.52539V18.0471C3.28166 18.204 3.31182 18.3595 3.37129 18.5046C3.43077 18.6498 3.51838 18.7817 3.62907 18.8929C3.73977 19.004 3.87136 19.0921 4.01627 19.1522C4.16119 19.2122 4.31655 19.243 4.47341 19.2428H14.954C15.2697 19.2428 15.5729 19.1165 15.7958 18.8927C16.0196 18.6679 16.1458 18.3637 16.1458 18.0471V12.308C16.1458 11.912 16.4653 11.5906 16.8604 11.5906C17.2545 11.5906 17.5749 11.912 17.5749 12.308V18.0471C17.5749 18.7454 17.2985 19.414 16.8068 19.9076C16.5639 20.1516 16.2751 20.3452 15.9572 20.4773C15.6392 20.6095 15.2983 20.6775 14.954 20.6776H4.47341C3.77802 20.6776 3.11228 20.4002 2.62063 19.9076C2.12852 19.4135 1.85232 18.7445 1.85254 18.0471V7.52539C1.85254 6.82713 2.12993 6.15852 2.62063 5.66496C2.86356 5.42096 3.15229 5.22734 3.47023 5.0952C3.78818 4.96306 4.1291 4.89501 4.47341 4.89496H10.1905C10.5846 4.89496 10.9051 5.21635 10.9051 5.61235C10.9051 6.00835 10.5846 6.32974 10.1905 6.32974H4.47341ZM13.2858 2.74278C13.2858 2.34678 13.6063 2.02539 14.0013 2.02539H19.7175C20.1125 2.02539 20.433 2.34678 20.433 2.74278V8.48191C20.433 8.87791 20.1125 9.1993 19.7185 9.1993C19.6244 9.19918 19.5312 9.18052 19.4444 9.1444C19.3575 9.10828 19.2786 9.0554 19.2121 8.98879C19.1457 8.92217 19.093 8.84312 19.0571 8.75615C19.0213 8.66918 19.0028 8.576 19.003 8.48191V3.46017H14.0004C13.8107 3.45941 13.6291 3.38347 13.4953 3.24898C13.3615 3.1145 13.2856 2.93246 13.2858 2.74278Z" fill="#ED711F"/>
<path fill-rule="evenodd" clip-rule="evenodd" d="M20.2241 2.23526C20.358 2.37002 20.4331 2.55227 20.4331 2.74222C20.4331 2.93218 20.358 3.11442 20.2241 3.24918L9.74254 13.7709C9.67633 13.8374 9.59762 13.8902 9.51095 13.9262C9.42428 13.9623 9.33135 13.9808 9.2375 13.9808C9.14364 13.9808 9.05071 13.9623 8.96404 13.9262C8.87737 13.8902 8.79867 13.8374 8.73245 13.7709C8.59858 13.6362 8.52344 13.4539 8.52344 13.264C8.52344 13.074 8.59858 12.8918 8.73245 12.757L19.214 2.23526C19.2802 2.16875 19.3589 2.11596 19.4456 2.07995C19.5323 2.04393 19.6252 2.02539 19.7191 2.02539C19.8129 2.02539 19.9058 2.04393 19.9925 2.07995C20.0792 2.11596 20.1579 2.16875 20.2241 2.23526Z" fill="#ED711F"/>
</g>
<g clip-path="url(#clip1_8_1617)">
<mask id="mask0_8_1617" style="mask-type:luminance" maskUnits="userSpaceOnUse" x="32" y="1" width="22" height="22">
<path d="M32.7803 1.06836H53.7424V22.1118H32.7803V1.06836Z" fill="white"/>
</mask>
<g mask="url(#mask0_8_1617)">
<path d="M43.263 3.60773C45.7251 1.42495 49.5292 1.49765 51.9004 3.84399C53.0346 4.95764 53.6938 6.46691 53.7402 8.05573C53.7866 9.64454 53.2164 11.1897 52.1491 12.3676L43.2602 21.1561L34.3741 12.3676C33.3069 11.1897 32.7367 9.64467 32.7829 8.05593C32.8291 6.46718 33.488 4.95789 34.6218 3.84399C36.9959 1.50052 40.7933 1.42208 43.263 3.60773Z" stroke="white" stroke-width="0.956522" stroke-linejoin="round"/>
</g>
</g>
<defs>
<clipPath id="clip0_8_1617">
<rect width="22" height="22" fill="white" transform="translate(0 0.589844)"/>
</clipPath>
<clipPath id="clip1_8_1617">
<rect width="22" height="22" fill="white" transform="translate(32 0.589844)"/>
</clipPath>
</defs>
</svg>
