<svg width="110" height="104" viewBox="0 0 110 104" fill="none" xmlns="http://www.w3.org/2000/svg">
<g filter="url(#filter0_di_21_9974)">
<path d="M17 23C17 15.268 23.268 9 31 9H93V79H31C23.268 79 17 72.732 17 65V23Z" fill="#ED711F"/>
<g clip-path="url(#clip0_21_9974)">
<path d="M62.5 25.5C63.163 25.5 63.7989 25.7634 64.2678 26.2322C64.7366 26.7011 65 27.337 65 28V58C65 58.663 64.7366 59.2989 64.2678 59.7678C63.7989 60.2366 63.163 60.5 62.5 60.5H47.5C46.837 60.5 46.2011 60.2366 45.7322 59.7678C45.2634 59.2989 45 58.663 45 58V28C45 27.337 45.2634 26.7011 45.7322 26.2322C46.2011 25.7634 46.837 25.5 47.5 25.5H62.5ZM47.5 23C46.1739 23 44.9021 23.5268 43.9645 24.4645C43.0268 25.4021 42.5 26.6739 42.5 28V58C42.5 59.3261 43.0268 60.5979 43.9645 61.5355C44.9021 62.4732 46.1739 63 47.5 63H62.5C63.8261 63 65.0979 62.4732 66.0355 61.5355C66.9732 60.5979 67.5 59.3261 67.5 58V28C67.5 26.6739 66.9732 25.4021 66.0355 24.4645C65.0979 23.5268 63.8261 23 62.5 23H47.5Z" fill="black"/>
<path d="M55 58C55.663 58 56.2989 57.7366 56.7678 57.2678C57.2366 56.7989 57.5 56.163 57.5 55.5C57.5 54.837 57.2366 54.2011 56.7678 53.7322C56.2989 53.2634 55.663 53 55 53C54.337 53 53.7011 53.2634 53.2322 53.7322C52.7634 54.2011 52.5 54.837 52.5 55.5C52.5 56.163 52.7634 56.7989 53.2322 57.2678C53.7011 57.7366 54.337 58 55 58Z" fill="black"/>
</g>
</g>
<defs>
<filter id="filter0_di_21_9974" x="0" y="0" width="110" height="104" filterUnits="userSpaceOnUse" color-interpolation-filters="sRGB">
<feFlood flood-opacity="0" result="BackgroundImageFix"/>
<feColorMatrix in="SourceAlpha" type="matrix" values="0 0 0 0 0 0 0 0 0 0 0 0 0 0 0 0 0 0 127 0" result="hardAlpha"/>
<feOffset dy="8"/>
<feGaussianBlur stdDeviation="8.5"/>
<feComposite in2="hardAlpha" operator="out"/>
<feColorMatrix type="matrix" values="0 0 0 0 0 0 0 0 0 0 0 0 0 0 0 0 0 0 0.2 0"/>
<feBlend mode="normal" in2="BackgroundImageFix" result="effect1_dropShadow_21_9974"/>
<feBlend mode="normal" in="SourceGraphic" in2="effect1_dropShadow_21_9974" result="shape"/>
<feColorMatrix in="SourceAlpha" type="matrix" values="0 0 0 0 0 0 0 0 0 0 0 0 0 0 0 0 0 0 127 0" result="hardAlpha"/>
<feMorphology radius="8" operator="dilate" in="SourceAlpha" result="effect2_innerShadow_21_9974"/>
<feOffset/>
<feGaussianBlur stdDeviation="10"/>
<feComposite in2="hardAlpha" operator="arithmetic" k2="-1" k3="1"/>
<feColorMatrix type="matrix" values="0 0 0 0 1 0 0 0 0 1 0 0 0 0 1 0 0 0 1 0"/>
<feBlend mode="normal" in2="shape" result="effect2_innerShadow_21_9974"/>
</filter>
<clipPath id="clip0_21_9974">
<rect width="40" height="40" fill="white" transform="translate(35 23)"/>
</clipPath>
</defs>
</svg>
