<svg width="41" height="40" viewBox="0 0 41 40" fill="none" xmlns="http://www.w3.org/2000/svg">
<g clip-path="url(#clip0_12_9916)">
<g clip-path="url(#clip1_12_9916)">
<path d="M22.223 6.73377C25.4532 7.03428 28.5315 8.24672 31.099 10.2298L32.163 9.18577L31.363 8.40177C31.2827 8.32301 31.2189 8.22903 31.1753 8.12532C31.1318 8.02161 31.1093 7.91026 31.1093 7.79777C31.1093 7.68529 31.1318 7.57394 31.1753 7.47023C31.2189 7.36652 31.2827 7.27253 31.363 7.19377L32.525 6.05377C32.6902 5.89394 32.9111 5.80459 33.141 5.80459C33.3708 5.80459 33.5917 5.89394 33.757 6.05377L37.119 9.35377C37.459 9.68577 37.459 10.2298 37.119 10.5618L35.959 11.7018C35.7937 11.8616 35.5728 11.951 35.343 11.951C35.1131 11.951 34.8922 11.8616 34.727 11.7018L33.927 10.9178L32.941 11.8858C35.919 14.955 37.5847 19.0633 37.585 23.3398C37.5833 25.5381 37.1419 27.7139 36.2866 29.739C35.4314 31.7642 34.1796 33.5977 32.605 35.1318C29.3915 38.269 25.0759 40.0211 20.585 40.0118C16.0928 40.0232 11.776 38.2692 8.56496 35.1278C6.9901 33.5935 5.73817 31.7596 4.88291 29.7341C4.02764 27.7086 3.58633 25.5324 3.58496 23.3338C3.58496 18.9018 5.35096 14.8698 8.22896 11.8818L7.24296 10.9138L6.44296 11.6978C6.27783 11.857 6.05736 11.946 5.82796 11.946C5.59856 11.946 5.3781 11.857 5.21296 11.6978L4.04896 10.5578C3.96865 10.479 3.90486 10.385 3.86131 10.2813C3.81776 10.1776 3.79533 10.0663 3.79533 9.95377C3.79533 9.84129 3.81776 9.72994 3.86131 9.62623C3.90486 9.52252 3.96865 9.42853 4.04896 9.34977L7.41296 6.04977C7.57819 5.88994 7.79908 5.80059 8.02896 5.80059C8.25884 5.80059 8.47973 5.88994 8.64496 6.04977L9.80696 7.18977C10.147 7.52177 10.147 8.06577 9.80696 8.39777L9.00696 9.18177L10.071 10.2258C12.6373 8.24068 15.7162 7.028 18.947 6.72977V4.37977H17.459C17.1587 4.38086 16.8701 4.26341 16.6559 4.05296C16.4417 3.8425 16.3192 3.55603 16.315 3.25577V1.13377C16.3192 0.833514 16.4417 0.547043 16.6559 0.336587C16.8701 0.126131 17.1587 0.00868986 17.459 0.00977305H23.719C24.0192 0.00868986 24.3078 0.126131 24.522 0.336587C24.7362 0.547043 24.8587 0.833514 24.863 1.13377V3.25377C24.8587 3.55403 24.7362 3.8405 24.522 4.05096C24.3078 4.26141 24.0192 4.37886 23.719 4.37777H22.231V6.73377H22.223ZM31.963 23.3338H20.583V12.1698C14.299 12.1698 9.20296 17.1698 9.20296 23.3338C9.20296 29.4978 14.299 34.4998 20.585 34.4998C26.869 34.4998 31.963 29.4998 31.963 23.3338ZM30.499 13.6058C27.8524 11.0114 24.291 9.56304 20.585 9.57377C16.713 9.57377 13.205 11.1138 10.669 13.6058C9.36868 14.8704 8.33505 16.3828 7.62913 18.0537C6.92321 19.7245 6.55932 21.5199 6.55896 23.3338C6.55896 27.1338 8.12896 30.5738 10.669 33.0618C13.3159 35.6568 16.8782 37.1053 20.585 37.0938C24.2918 37.1055 27.8541 35.657 30.501 33.0618C31.8012 31.7971 32.8349 30.2847 33.5408 28.6139C34.2467 26.943 34.6106 25.1476 34.611 23.3338C34.611 19.5338 33.041 16.0938 30.501 13.6058H30.499Z" fill="#ED711F"/>
</g>
</g>
<defs>
<clipPath id="clip0_12_9916">
<rect width="40" height="40" fill="white" transform="translate(0.584961)"/>
</clipPath>
<clipPath id="clip1_12_9916">
<rect width="40" height="40" fill="white" transform="translate(0.584961)"/>
</clipPath>
</defs>
</svg>
