<svg width="81" height="102" viewBox="0 0 81 102" fill="none" xmlns="http://www.w3.org/2000/svg">
<g filter="url(#filter0_d_8_1287)">
<rect x="15.3799" y="23.2051" width="50" height="50" rx="13" fill="#222222"/>
<g clip-path="url(#clip0_8_1287)">
<g clip-path="url(#clip1_8_1287)">
<g clip-path="url(#clip2_8_1287)">
<path d="M40.1469 45.0163H30.8239C30.5799 45.0163 30.3799 44.8043 30.3799 44.5443C30.3799 44.2843 30.5799 44.0723 30.8239 44.0723H40.1469C40.3919 44.0723 40.5909 44.2833 40.5909 44.5443C40.5909 44.8043 40.3919 45.0163 40.1469 45.0163ZM49.9349 45.0163H45.4049C45.1589 45.0163 44.9599 44.8043 44.9599 44.5443C44.9599 44.2843 45.1599 44.0723 45.4039 44.0723H49.9349C50.1809 44.0723 50.3799 44.2833 50.3799 44.5443C50.3799 44.8043 50.1799 45.0163 49.9349 45.0163ZM33.6179 51.3363H30.8239C30.5799 51.3363 30.3799 51.1243 30.3799 50.8643C30.3799 50.6043 30.5799 50.3923 30.8239 50.3923H33.6179C33.8629 50.3923 34.0619 50.6033 34.0619 50.8643C34.0619 51.1243 33.8629 51.3363 33.6179 51.3363ZM49.9349 51.3363H38.8749C38.6299 51.3363 38.4309 51.1243 38.4309 50.8643C38.4309 50.6043 38.6299 50.3923 38.8749 50.3923H49.9349C50.1799 50.3923 50.3789 50.6033 50.3789 50.8643C50.3789 51.1243 50.1799 51.3363 49.9349 51.3363Z" fill="white"/>
<path d="M43.6452 46.8851C42.4292 46.8851 41.4402 45.8351 41.4402 44.5451C41.4402 43.2551 42.4302 42.2051 43.6452 42.2051C44.8612 42.2051 45.8502 43.2551 45.8502 44.5451C45.8502 45.8351 44.8602 46.8851 43.6452 46.8851ZM43.6452 43.1491C42.9202 43.1491 42.3292 43.7751 42.3292 44.5451C42.3292 45.3151 42.9192 45.9421 43.6452 45.9421C44.3712 45.9421 44.9612 45.3151 44.9612 44.5451C44.9612 43.7751 44.3712 43.1491 43.6452 43.1491ZM37.1162 53.2051C35.9002 53.2051 34.9102 52.1551 34.9102 50.8651C34.9102 49.5751 35.9002 48.5251 37.1152 48.5251C38.3302 48.5251 39.3202 49.5751 39.3202 50.8651C39.3202 52.1551 38.3312 53.2051 37.1162 53.2051ZM37.1162 49.4681C36.3902 49.4681 35.8002 50.0951 35.8002 50.8651C35.8002 51.6351 36.3902 52.2621 37.1162 52.2621C37.8412 52.2621 38.4322 51.6351 38.4322 50.8651C38.4322 50.0951 37.8422 49.4681 37.1162 49.4681Z" fill="white"/>
</g>
</g>
</g>
</g>
<defs>
<filter id="filter0_d_8_1287" x="0.379883" y="16.2051" width="80" height="80" filterUnits="userSpaceOnUse" color-interpolation-filters="sRGB">
<feFlood flood-opacity="0" result="BackgroundImageFix"/>
<feColorMatrix in="SourceAlpha" type="matrix" values="0 0 0 0 0 0 0 0 0 0 0 0 0 0 0 0 0 0 127 0" result="hardAlpha"/>
<feOffset dy="8"/>
<feGaussianBlur stdDeviation="7.5"/>
<feComposite in2="hardAlpha" operator="out"/>
<feColorMatrix type="matrix" values="0 0 0 0 0.105882 0 0 0 0 0.105882 0 0 0 0 0.105882 0 0 0 0.1 0"/>
<feBlend mode="normal" in2="BackgroundImageFix" result="effect1_dropShadow_8_1287"/>
<feBlend mode="normal" in="SourceGraphic" in2="effect1_dropShadow_8_1287" result="shape"/>
</filter>
<clipPath id="clip0_8_1287">
<rect width="48" height="20" fill="white" transform="translate(16.3799 38.2051)"/>
</clipPath>
<clipPath id="clip1_8_1287">
<rect width="20" height="20" fill="white" transform="translate(30.3799 38.2051)"/>
</clipPath>
<clipPath id="clip2_8_1287">
<rect width="20" height="20" fill="white" transform="translate(30.3799 38.2051)"/>
</clipPath>
</defs>
</svg>
