<svg width="93" height="42" viewBox="0 0 93 42" fill="none" xmlns="http://www.w3.org/2000/svg">
<g clip-path="url(#clip0_8_2208)">
<g clip-path="url(#clip1_8_2208)">
<path d="M24.0794 11.1094H24.1932C24.2845 12.2377 23.8538 13.0808 23.3304 13.6914C22.8168 14.2977 22.1135 14.8858 20.976 14.7965C20.9002 13.6844 21.3315 12.9038 21.8543 12.2946C22.3391 11.7269 23.2278 11.2218 24.0794 11.1094ZM27.5227 22.8538V22.8854C27.2031 23.8536 26.7471 24.6833 26.1906 25.4534C25.6827 26.1525 25.0602 27.0932 23.9487 27.0932C22.9882 27.0932 22.3503 26.4756 21.366 26.4588C20.3247 26.4419 19.7521 26.9752 18.8001 27.1094H18.4755C17.7765 27.0082 17.2123 26.4546 16.8013 25.9557C15.5893 24.4817 14.6528 22.5777 14.4785 20.1411V19.4252C14.5523 17.6814 15.3996 16.2635 16.5259 15.5764C17.1202 15.2111 17.9373 14.8998 18.8472 15.0389C19.2371 15.0994 19.6355 15.2329 19.9847 15.3649C20.3156 15.4921 20.7294 15.7176 21.1215 15.7057C21.387 15.698 21.6512 15.5596 21.9189 15.4619C22.703 15.1788 23.4716 14.8542 24.4848 15.0066C25.7023 15.1907 26.5665 15.7317 27.1005 16.5664C26.0705 17.2219 25.2562 18.2097 25.3953 19.8966C25.519 21.429 26.4098 22.3255 27.5227 22.8538Z" fill="white" fill-opacity="0.5"/>
</g>
</g>
<rect x="1" y="1.10938" width="40" height="40" rx="9.5" stroke="white" stroke-opacity="0.1"/>
<g clip-path="url(#clip2_8_2208)">
<g clip-path="url(#clip3_8_2208)">
<path d="M66.2208 18.292C65.9451 18.292 65.7112 18.3882 65.5189 18.5804C65.3266 18.7727 65.2305 19.0034 65.2305 19.2727V23.4073C65.2305 23.6833 65.3266 23.917 65.5189 24.1093C65.7112 24.3016 65.9451 24.3978 66.2208 24.3978C66.4962 24.3978 66.7287 24.3016 66.918 24.1093C67.1069 23.9171 67.2017 23.6833 67.2017 23.4073V19.2727C67.2017 19.0034 67.1055 18.7727 66.9132 18.5804C66.7209 18.3882 66.49 18.292 66.2208 18.292ZM74.1824 14.5804L74.8651 13.321C74.9099 13.2376 74.894 13.1737 74.8171 13.1287C74.7337 13.09 74.6696 13.1096 74.6249 13.1863L73.9326 14.4557C73.3235 14.1864 72.6792 14.0515 71.9998 14.0515C71.3203 14.0515 70.676 14.1865 70.0671 14.4557L69.3748 13.1863C69.3298 13.1096 69.2658 13.0901 69.1826 13.1287C69.1055 13.1739 69.0896 13.2376 69.1346 13.321L69.8173 14.5804C69.125 14.9334 68.5737 15.4251 68.1635 16.0565C67.7532 16.6882 67.548 17.3786 67.548 18.1287H76.442C76.442 17.3787 76.2368 16.6884 75.8266 16.0565C75.4163 15.4251 74.8681 14.9334 74.1824 14.5804ZM70.2353 16.4122C70.1615 16.4862 70.0733 16.5231 69.9708 16.5231C69.8681 16.5231 69.7817 16.4862 69.7112 16.4122C69.6408 16.3386 69.6055 16.2507 69.6055 16.1479C69.6055 16.0454 69.6408 15.9574 69.7112 15.8836C69.7817 15.8099 69.8683 15.7731 69.9708 15.7731C70.0733 15.7731 70.1615 15.8099 70.2353 15.8836C70.309 15.9576 70.346 16.0454 70.346 16.1479C70.3458 16.2506 70.3088 16.3386 70.2353 16.4122ZM74.2881 16.4122C74.2175 16.4862 74.1309 16.5231 74.0285 16.5231C73.9258 16.5231 73.8377 16.4862 73.764 16.4122C73.6902 16.3386 73.6533 16.2507 73.6533 16.1479C73.6533 16.0454 73.6902 15.9574 73.764 15.8836C73.8377 15.8099 73.9258 15.7731 74.0285 15.7731C74.131 15.7731 74.2174 15.8099 74.2881 15.8836C74.3586 15.9576 74.3938 16.0454 74.3938 16.1479C74.3938 16.2506 74.3586 16.3386 74.2881 16.4122ZM67.5862 24.8784C67.5862 25.1736 67.6887 25.4234 67.8937 25.6285C68.0989 25.8335 68.3488 25.936 68.6437 25.936H69.3553L69.3651 28.1189C69.3651 28.3946 69.4612 28.6287 69.6535 28.821C69.8457 29.0133 70.0766 29.1094 70.3457 29.1094C70.6212 29.1094 70.8553 29.0133 71.0476 28.821C71.2399 28.6287 71.336 28.3946 71.336 28.1189V25.9362H72.6629V28.1189C72.6629 28.3946 72.759 28.6287 72.9513 28.821C73.1436 29.0133 73.3775 29.1094 73.6532 29.1094C73.9287 29.1094 74.1627 29.0133 74.355 28.821C74.5473 28.6287 74.6434 28.3946 74.6434 28.1189V25.9362H75.3646C75.653 25.9362 75.8997 25.8337 76.1051 25.6286C76.3101 25.4236 76.4126 25.1738 76.4126 24.8786V18.4745H67.5862V24.8784ZM77.7786 18.292C77.5092 18.292 77.2786 18.3867 77.0862 18.5757C76.894 18.7649 76.7978 18.9974 76.7978 19.2727V23.4073C76.7978 23.6833 76.8939 23.917 77.0862 24.1093C77.2786 24.3016 77.5094 24.3978 77.7786 24.3978C78.0541 24.3978 78.2881 24.3016 78.4804 24.1093C78.6727 23.917 78.7688 23.6833 78.7688 23.4073V19.2727C78.7688 18.9974 78.6727 18.7649 78.4804 18.5757C78.2881 18.3867 78.0541 18.292 77.7786 18.292Z" fill="white" fill-opacity="0.5"/>
</g>
</g>
<rect x="52" y="1.10938" width="40" height="40" rx="9.5" stroke="white" stroke-opacity="0.1"/>
<defs>
<clipPath id="clip0_8_2208">
<rect width="16" height="16" fill="white" transform="translate(13 11.1094)"/>
</clipPath>
<clipPath id="clip1_8_2208">
<rect width="16" height="16" fill="white" transform="translate(13 11.1094)"/>
</clipPath>
<clipPath id="clip2_8_2208">
<rect width="16" height="16" fill="white" transform="translate(64 13.1094)"/>
</clipPath>
<clipPath id="clip3_8_2208">
<rect width="16" height="16" fill="white" transform="translate(64 13.1094)"/>
</clipPath>
</defs>
</svg>
