<svg width="41" height="42" viewBox="0 0 41 42" fill="none" xmlns="http://www.w3.org/2000/svg">
<g clip-path="url(#clip0_8_2142)">
<g clip-path="url(#clip1_8_2142)">
<path d="M26.686 19.8668C26.9137 19.5647 27.0945 19.3209 27.2272 19.1374C28.1881 17.8197 28.605 16.9793 28.477 16.6122L28.4272 16.5275C28.3942 16.4748 28.3076 16.4277 28.1693 16.3844C27.9948 16.3401 27.813 16.333 27.6356 16.3637L25.2366 16.3807C25.1439 16.3713 25.0502 16.3816 24.9618 16.4108L24.9203 16.4315L24.8865 16.4578C24.851 16.4824 24.8201 16.513 24.7952 16.5482C24.7603 16.594 24.7324 16.6448 24.7123 16.6988C24.4507 17.3915 24.1533 18.0353 23.8201 18.631C23.6406 18.9439 23.452 19.2515 23.2545 19.5534C23.0822 19.815 22.9373 20.007 22.8215 20.1294C22.7039 20.2517 22.5985 20.3515 22.5043 20.4258C22.4102 20.5011 22.3377 20.5313 22.2879 20.52C22.2406 20.5095 22.1935 20.4982 22.1467 20.4861C22.067 20.433 22.0022 20.3604 21.9585 20.2753C21.9067 20.1703 21.8745 20.0567 21.8634 19.9402C21.8482 19.8246 21.8385 19.7084 21.8342 19.592C21.8315 19.4549 21.8327 19.3177 21.838 19.1807C21.8436 19.0028 21.8465 18.8823 21.8465 18.8193C21.8465 18.6028 21.8502 18.3656 21.8587 18.1115L21.8794 17.5054C21.885 17.3567 21.8888 17.1995 21.8888 17.0329C21.8888 16.8673 21.8785 16.7374 21.8587 16.6423C21.8399 16.5482 21.8097 16.4569 21.7712 16.3675C21.7362 16.2834 21.6769 16.2116 21.6008 16.1614C21.5144 16.1081 21.4201 16.069 21.3213 16.0456C21.0267 15.9769 20.6521 15.9402 20.1966 15.9327C19.1641 15.9223 18.4996 15.9901 18.206 16.1397C18.0855 16.2054 17.9781 16.2925 17.8888 16.3967C17.789 16.5228 17.7759 16.5915 17.8474 16.6037C18.1806 16.6546 18.4168 16.7778 18.5561 16.9727L18.606 17.0753C18.6436 17.1506 18.6832 17.2823 18.7227 17.4706C18.7603 17.6588 18.7857 17.8687 18.798 18.0974C18.8253 18.5153 18.8253 18.8729 18.798 19.1703C18.7698 19.4687 18.7434 19.7011 18.718 19.8668C18.6925 20.0777 18.6201 20.2803 18.5062 20.4597C18.4951 20.4766 18.4807 20.491 18.4639 20.5021C18.3923 20.5306 18.316 20.5453 18.2389 20.5454C18.1618 20.5454 18.0667 20.5049 17.9566 20.4249C17.8282 20.3288 17.7119 20.2176 17.6102 20.0936C17.4596 19.9091 17.3243 19.7127 17.2055 19.5063C17.0568 19.255 16.9006 18.9567 16.7396 18.6131L16.6069 18.3647C16.5232 18.2047 16.4093 17.9703 16.2653 17.6644C16.1271 17.3726 15.9993 17.0759 15.8822 16.775C15.8451 16.6651 15.7751 16.5692 15.6818 16.5002L15.6403 16.4748C15.5418 16.4105 15.4314 16.3666 15.3156 16.3458L13.0323 16.3628C12.7999 16.3628 12.6418 16.4174 12.558 16.5266L12.525 16.5783C12.5053 16.6213 12.4965 16.6685 12.4996 16.7157C12.4996 16.7788 12.5166 16.856 12.5495 16.9473C12.8827 17.7548 13.246 18.5331 13.6366 19.2833C14.0281 20.0334 14.3688 20.6386 14.6578 21.096C14.9458 21.5543 15.2413 21.9863 15.5406 22.3929C15.8408 22.7995 16.0394 23.0593 16.1363 23.1741C16.2333 23.2889 16.3095 23.3746 16.365 23.432L16.573 23.6381C16.7067 23.7755 16.9025 23.9393 17.1603 24.1322C17.4192 24.3242 17.7043 24.5124 18.0187 24.6988C18.3321 24.8851 18.6973 25.0357 19.1142 25.1534C19.5302 25.271 19.9359 25.3181 20.3302 25.2955H21.2883C21.4832 25.2786 21.63 25.2155 21.7297 25.1073L21.7627 25.064C21.7913 25.0143 21.8125 24.9607 21.8258 24.9049C21.8455 24.8281 21.8549 24.7489 21.854 24.6696C21.8465 24.4461 21.8648 24.2225 21.9086 24.0033C21.9359 23.8487 21.9834 23.6984 22.0498 23.5562C22.1269 23.4075 22.237 23.2784 22.3716 23.1788C22.393 23.1675 22.415 23.1575 22.4375 23.1487C22.5712 23.1026 22.7283 23.1468 22.9081 23.2814C23.0888 23.416 23.2582 23.5826 23.4163 23.7802C23.5754 23.9778 23.7646 24.199 23.9876 24.4456C24.2098 24.6913 24.4036 24.8748 24.5712 24.9953L24.7368 25.0988C24.8479 25.1666 24.9928 25.2306 25.1697 25.287C25.3486 25.3435 25.5039 25.3586 25.6366 25.3303L27.7693 25.2955C27.9801 25.2955 28.1448 25.2597 28.2615 25.1882C28.3773 25.1176 28.4469 25.0376 28.4686 24.9529C28.491 24.8571 28.4926 24.7576 28.4733 24.6611C28.4621 24.5833 28.4425 24.507 28.4149 24.4334C28.3988 24.3967 28.3809 24.3609 28.3613 24.3261C28.0836 23.8103 27.5528 23.1778 26.7707 22.4277L26.7528 22.4108L26.7453 22.4014L26.7359 22.3929H26.7283C26.3726 22.0447 26.1476 21.8094 26.0535 21.6889C25.8813 21.4602 25.8427 21.2277 25.9368 20.9934C26.0027 20.8146 26.253 20.44 26.686 19.8677V19.8668Z" fill="white" fill-opacity="0.5"/>
</g>
</g>
<rect x="0.5" y="1.10938" width="40" height="40" rx="9.5" stroke="white" stroke-opacity="0.1"/>
<defs>
<clipPath id="clip0_8_2142">
<rect width="16" height="16" fill="white" transform="translate(12.5 13.1094)"/>
</clipPath>
<clipPath id="clip1_8_2142">
<rect width="16" height="16" fill="white" transform="translate(12.5 13.1094)"/>
</clipPath>
</defs>
</svg>
