<svg width="35" height="40" viewBox="0 0 35 40" fill="none" xmlns="http://www.w3.org/2000/svg">
<mask id="mask0_12_9812" style="mask-type:luminance" maskUnits="userSpaceOnUse" x="5" y="8" width="25" height="24">
<path d="M5.78125 8.28125H29.2188V31.7188H5.78125V8.28125Z" fill="white"/>
</mask>
<g mask="url(#mask0_12_9812)">
<path d="M17.5 31.7188C15.9611 31.7188 14.4372 31.4156 13.0154 30.8267C11.5936 30.2378 10.3018 29.3746 9.21359 28.2864C8.12541 27.1982 7.26221 25.9064 6.67329 24.4846C6.08436 23.0628 5.78125 21.5389 5.78125 20C5.78125 18.4611 6.08436 16.9372 6.67329 15.5154C7.26221 14.0936 8.12541 12.8018 9.21359 11.7136C10.3018 10.6254 11.5936 9.76221 13.0154 9.17329C14.4372 8.58436 15.9611 8.28125 17.5 8.28125C20.608 8.28125 23.5887 9.5159 25.7864 11.7136C27.9841 13.9113 29.2188 16.892 29.2188 20C29.2188 23.108 27.9841 26.0887 25.7864 28.2864C23.5887 30.4841 20.608 31.7188 17.5 31.7188ZM24.9469 24.6313V24.5078C24.9469 23.4281 24.9469 22.9344 24.1828 22.4969C23.9376 22.3575 23.6858 22.2303 23.4281 22.1156C22.9969 21.9203 22.7125 21.7937 22.3281 21.2312C22.2822 21.164 22.2369 21.0962 22.1922 21.0281C21.7875 20.4141 21.4953 19.9703 20.3859 20.1469C18.1984 20.4937 18.0375 20.8781 17.9422 21.5266L17.9266 21.6344C17.7859 22.5828 17.7594 22.9016 18.1547 23.3172C19.6375 24.8719 20.5266 25.9937 20.7953 26.65C20.9266 26.9703 21.2641 27.9391 21.0328 28.8984C22.4552 28.3317 23.7212 27.4327 24.725 26.2766C24.8531 25.8391 24.9469 25.2922 24.9469 24.6313ZM17.5 10.4281C16.2087 10.4269 14.9305 10.6877 13.7429 11.1948C12.5553 11.7018 11.4829 12.4446 10.5906 13.3781C10.8162 13.5349 10.9936 13.7513 11.1031 14.0031C11.3422 14.5391 11.3422 15.0906 11.3422 15.5797C11.3422 15.9641 11.3422 16.3297 11.4656 16.5938C11.6328 16.9531 12.3625 17.1094 13.0062 17.2422C13.2359 17.2922 13.4734 17.3406 13.6891 17.4C14.2828 17.5641 14.7406 18.0984 15.1078 18.525C15.2609 18.7031 15.4859 18.9641 15.6 19.0297C15.7673 18.8723 15.8856 18.6699 15.9406 18.4469C16.0125 18.1875 15.9922 17.9609 15.8875 17.8375C15.2312 17.0641 15.2672 15.575 15.4703 15.025C15.7891 14.1594 16.7859 14.2234 17.5141 14.2703C17.7859 14.2875 18.0406 14.3063 18.2328 14.2812C18.9625 14.1906 19.1875 13.0797 19.3453 12.8641C19.6891 12.3953 20.7359 11.6875 21.3844 11.2516C20.1616 10.7081 18.8381 10.4281 17.5 10.4297V10.4281Z" fill="#ED711F"/>
</g>
</svg>
