<svg width="35" height="40" viewBox="0 0 35 40" fill="none" xmlns="http://www.w3.org/2000/svg">
<mask id="mask0_12_9823" style="mask-type:luminance" maskUnits="userSpaceOnUse" x="5" y="8" width="25" height="24">
<path d="M5.78125 8.28125H29.2188V31.7188H5.78125V8.28125Z" fill="white"/>
</mask>
<g mask="url(#mask0_12_9823)">
<path d="M14.5156 8.53184C16.0966 8.19931 17.7293 8.19771 19.3109 8.52715C19.4689 9.57606 19.9786 10.5401 20.7565 11.2613C21.5345 11.9824 22.5343 12.4177 23.5922 12.4959C24.2938 12.549 24.9984 12.4428 25.6531 12.1865C26.7285 13.3911 27.543 14.8051 28.0453 16.3397C27.496 16.7786 27.0528 17.3356 26.7484 17.9694C26.4441 18.6032 26.2866 19.2975 26.2875 20.0006C26.2875 21.4818 26.975 22.8022 28.0469 23.6615C27.541 25.1946 26.7251 26.6072 25.65 27.8115C24.6631 27.4242 23.5738 27.3834 22.5607 27.6959C21.5476 28.0085 20.6706 28.6558 20.0734 29.5318C19.6766 30.1131 19.4172 30.774 19.3109 31.4693C17.731 31.8014 16.0994 31.803 14.5188 31.474C14.3617 30.4244 13.8523 29.4595 13.0743 28.7377C12.2963 28.0159 11.2959 27.5802 10.2375 27.5022C9.53594 27.449 8.83125 27.5553 8.17656 27.8115C7.10067 26.6071 6.28567 25.1931 5.78281 23.6584C6.6116 22.9974 7.1913 22.0744 7.42692 21.0408C7.66254 20.0072 7.54011 18.9243 7.07969 17.9693C6.7749 17.3354 6.33108 16.7784 5.78125 16.3397C6.28684 14.806 7.10273 13.3928 8.17813 12.1881C9.16486 12.5759 10.2541 12.6171 11.2672 12.3048C12.2804 11.9925 13.1575 11.3453 13.7547 10.4693C14.15 9.88809 14.4094 9.22715 14.5156 8.53184ZM16.9141 23.5162C17.8465 23.5162 18.7407 23.1458 19.4 22.4865C20.0593 21.8272 20.4297 20.933 20.4297 20.0006C20.4297 19.0682 20.0593 18.174 19.4 17.5147C18.7407 16.8554 17.8465 16.485 16.9141 16.485C15.9817 16.485 15.0874 16.8554 14.4281 17.5147C13.7688 18.174 13.3984 19.0682 13.3984 20.0006C13.3984 20.933 13.7688 21.8272 14.4281 22.4865C15.0874 23.1458 15.9817 23.5162 16.9141 23.5162Z" fill="#ED711F"/>
</g>
</svg>
