<svg width="35" height="40" viewBox="0 0 35 40" fill="none" xmlns="http://www.w3.org/2000/svg">
<mask id="mask0_12_9835" style="mask-type:luminance" maskUnits="userSpaceOnUse" x="5" y="8" width="25" height="24">
<path d="M5.78125 8.28125H29.2188V31.7188H5.78125V8.28125Z" fill="white"/>
</mask>
<g mask="url(#mask0_12_9835)">
<path d="M29.2188 24.9734V29.5781C29.2192 29.9079 29.0944 30.2256 28.8696 30.4669C28.6448 30.7082 28.3368 30.8552 28.0078 30.8781C27.4391 30.9172 26.9734 30.9375 26.6141 30.9375C15.1094 30.9375 5.78125 21.6094 5.78125 10.1047C5.78125 9.74531 5.80156 9.27969 5.84062 8.71094C5.86359 8.38195 6.01058 8.07395 6.25189 7.84917C6.4932 7.62439 6.81084 7.4996 7.14062 7.5H11.7453C11.9068 7.49995 12.0625 7.55987 12.1823 7.66813C12.3021 7.77639 12.3775 7.92528 12.3937 8.08594C12.4234 8.38594 12.45 8.62344 12.4766 8.80469C12.7359 10.6109 13.2656 12.3672 14.05 14.0141C14.11 14.1402 14.1236 14.2834 14.0885 14.4186C14.0533 14.5538 13.9717 14.6722 13.8578 14.7531L11.0484 16.7609C12.7664 20.7639 15.9564 23.9539 19.9594 25.6719L21.9656 22.8672C22.0476 22.7528 22.167 22.6708 22.3032 22.6354C22.4394 22.6 22.5837 22.6135 22.7109 22.6734C24.3578 23.4547 26.1141 23.9859 27.9188 24.2422C28.1 24.2688 28.3391 24.2969 28.6359 24.325C28.7963 24.3416 28.9448 24.4171 29.0528 24.5369C29.1607 24.6567 29.2204 24.8122 29.2203 24.9734H29.2188Z" fill="#ED711F"/>
</g>
</svg>
