<svg width="35" height="40" viewBox="0 0 35 40" fill="none" xmlns="http://www.w3.org/2000/svg">
<mask id="mask0_11_9762" style="mask-type:luminance" maskUnits="userSpaceOnUse" x="5" y="8" width="25" height="24">
<path d="M5.78125 8.28125H29.2188V31.7188H5.78125V8.28125Z" fill="white"/>
</mask>
<g mask="url(#mask0_11_9762)">
<path d="M24.2793 24.6478L17.4981 31.4291L10.7199 24.6478C9.37918 23.307 8.46614 21.5986 8.09627 19.7389C7.72641 17.8791 7.91632 15.9514 8.642 14.1996C9.36768 12.4477 10.5965 10.9504 12.1732 9.89698C13.7498 8.84353 15.6034 8.28125 17.4996 8.28125C19.3958 8.28125 21.2494 8.84353 22.8261 9.89698C24.4027 10.9504 25.6315 12.4477 26.3572 14.1996C27.0829 15.9514 27.2728 17.8791 26.903 19.7389C26.5331 21.5986 25.6201 23.307 24.2793 24.6478ZM17.4981 22.1306C18.6283 22.1306 19.7123 21.6816 20.5115 20.8824C21.3108 20.0832 21.7598 18.9992 21.7598 17.8689C21.7598 16.7387 21.3108 15.6547 20.5115 14.8554C19.7123 14.0562 18.6283 13.6072 17.4981 13.6072C16.3678 13.6072 15.2838 14.0562 14.4846 14.8554C13.6853 15.6547 13.2363 16.7387 13.2363 17.8689C13.2363 18.9992 13.6853 20.0832 14.4846 20.8824C15.2838 21.6816 16.3678 22.1306 17.4981 22.1306ZM17.4996 19.9994C17.215 20.0071 16.9317 19.9577 16.6665 19.8541C16.4012 19.7505 16.1595 19.5948 15.9554 19.3962C15.7514 19.1976 15.5892 18.9602 15.4785 18.6978C15.3677 18.4355 15.3107 18.1537 15.3107 17.8689C15.3107 17.5842 15.3677 17.3023 15.4785 17.04C15.5892 16.7777 15.7514 16.5402 15.9554 16.3416C16.1595 16.143 16.4012 15.9874 16.6665 15.8838C16.9317 15.7802 17.215 15.7308 17.4996 15.7385C18.0547 15.7535 18.5819 15.9845 18.9692 16.3824C19.3565 16.7803 19.5732 17.3137 19.5732 17.8689C19.5732 18.4242 19.3565 18.9575 18.9692 19.3554C18.5819 19.7533 18.0547 19.9844 17.4996 19.9994Z" fill="#ED711F"/>
</g>
</svg>
