<svg width="41" height="40" viewBox="0 0 41 40" fill="none" xmlns="http://www.w3.org/2000/svg">
<rect x="0.5" width="40" height="40" rx="20" fill="#F2E14C" fill-opacity="0.3"/>
<path d="M20.5 20C19.4 20 18.4583 19.6083 17.675 18.825C16.8917 18.0417 16.5 17.1 16.5 16C16.5 14.9 16.8917 13.9583 17.675 13.175C18.4583 12.3917 19.4 12 20.5 12C21.6 12 22.5417 12.3917 23.325 13.175C24.1083 13.9583 24.5 14.9 24.5 16C24.5 17.1 24.1083 18.0417 23.325 18.825C22.5417 19.6083 21.6 20 20.5 20ZM12.5 28V25.2C12.5 24.6333 12.646 24.1123 12.938 23.637C13.23 23.1617 13.6173 22.7993 14.1 22.55C15.1333 22.0333 16.1833 21.6457 17.25 21.387C18.3167 21.1283 19.4 20.9993 20.5 21C21.6 21 22.6833 21.1293 23.75 21.388C24.8167 21.6467 25.8667 22.034 26.9 22.55C27.3833 22.8 27.771 23.1627 28.063 23.638C28.355 24.1133 28.5007 24.634 28.5 25.2V28H12.5Z" fill="#ED711F"/>
</svg>
