<svg width="41" height="40" viewBox="0 0 41 40" fill="none" xmlns="http://www.w3.org/2000/svg">
<rect x="0.5" width="40" height="40" rx="20" fill="#F2E14C" fill-opacity="0.3"/>
<g clip-path="url(#clip0_289_615)">
<g clip-path="url(#clip1_289_615)">
<path d="M8.54702 32.001C8.46576 32.0007 8.38745 31.9704 8.32711 31.916C8.26677 31.8615 8.22864 31.7868 8.22002 31.706L7.00002 19.337L6.99902 19.306C6.99902 19.124 7.14602 18.977 7.32802 18.977H15.561V32.002L8.54702 32.001ZM11.907 28.736C11.907 28.9933 11.9833 29.2458 12.1263 29.4598C12.2692 29.6737 12.4724 29.8405 12.7102 29.9389C12.9479 30.0374 13.2095 30.0632 13.4618 30.013C13.7142 29.9628 13.946 29.8388 14.128 29.6569C14.3099 29.475 14.4338 29.2431 14.484 28.9908C14.5342 28.7384 14.5085 28.4768 14.41 28.2391C14.3115 28.0014 14.1448 27.7982 13.9308 27.6552C13.7169 27.5123 13.4653 27.436 13.208 27.436H13.206C12.487 27.436 11.905 28.018 11.904 28.737L11.907 28.736ZM12.387 20.736C12.387 20.917 12.534 21.064 12.716 21.064H13.48C13.567 21.064 13.6504 21.0294 13.712 20.9679C13.7735 20.9064 13.808 20.8229 13.808 20.736C13.808 20.649 13.7735 20.5655 13.712 20.504C13.6504 20.4425 13.567 20.408 13.48 20.408H12.71C12.6228 20.408 12.5391 20.4426 12.4774 20.5043C12.4157 20.566 12.381 20.6497 12.381 20.737V20.74L12.387 20.736ZM8.77702 20.736C8.77702 20.917 8.92402 21.064 9.10502 21.064H11.61C11.697 21.064 11.7804 21.0294 11.842 20.9679C11.9035 20.9064 11.938 20.8229 11.938 20.736C11.938 20.649 11.9035 20.5655 11.842 20.504C11.7804 20.4425 11.697 20.408 11.61 20.408H9.09902C9.01203 20.408 8.9286 20.4425 8.86709 20.504C8.80558 20.5655 8.77102 20.649 8.77102 20.736V20.739L8.77702 20.736ZM18.577 30.124C18.4008 30.0644 18.2343 29.9792 18.083 29.871L18.089 29.875L17.989 29.812C17.7561 29.6658 17.526 29.5151 17.299 29.36L17.198 29.289C17.066 29.194 17.004 29.152 16.936 29.156C16.696 29.161 16.456 29.163 16.216 29.166V20.011L16.203 19.241C16.654 18.954 17.07 18.681 17.195 18.577C17.365 18.235 17.533 17.949 17.719 17.675L17.702 17.702C17.787 17.569 17.872 17.437 17.95 17.306L19.674 14.412C19.754 14.276 19.841 14.14 19.928 14.004C20.073 13.788 20.227 13.53 20.368 13.264L20.392 13.215C20.471 13.0535 20.4986 12.8716 20.471 12.694L20.472 12.699L20.466 9.57895C20.529 9.12495 20.785 8.74095 21.146 8.50695L21.152 8.50295C21.4739 8.21308 21.8823 8.03735 22.314 8.00295H22.321L22.384 8.00195C22.725 8.00195 23.047 8.08295 23.333 8.22595L23.321 8.21995C23.512 8.31195 23.675 8.40995 23.828 8.51995L23.818 8.51295L23.924 8.58295C24.165 8.70995 24.345 8.92395 24.425 9.18295L24.427 9.18995C24.614 9.88595 24.785 10.519 24.944 11.154L25.01 11.413C25.111 11.753 25.198 12.164 25.254 12.585L25.259 12.627C25.088 14.201 24.759 15.637 24.283 17.005L24.325 16.867L32.018 16.856H32.046C32.2791 16.856 32.5095 16.9056 32.7219 17.0015C32.9343 17.0974 33.1239 17.2373 33.278 17.4121C33.4322 17.5869 33.5474 17.7925 33.616 18.0152C33.6847 18.2379 33.7051 18.4727 33.676 18.704L33.677 18.696C33.6985 19.0453 33.6272 19.3942 33.4701 19.707C33.3131 20.0198 33.076 20.2855 32.783 20.477L32.775 20.482C33.0556 20.8923 33.187 21.3865 33.147 21.882V21.875C33.1821 22.2676 33.0906 22.6612 32.886 22.9981C32.6815 23.3351 32.3745 23.5978 32.01 23.748L31.998 23.752C32.2217 24.1507 32.3255 24.6056 32.297 25.062V25.056C32.3188 25.3978 32.248 25.7392 32.0921 26.0441C31.9361 26.3491 31.7009 26.6064 31.411 26.789L31.403 26.794C31.6073 27.2514 31.6846 27.7553 31.627 28.253L31.628 28.24V28.428C31.6137 28.6743 31.5498 28.9151 31.4402 29.1362C31.3306 29.3572 31.1775 29.5539 30.9902 29.7143C30.8028 29.8748 30.5849 29.9959 30.3497 30.0702C30.1144 30.1445 29.8666 30.1706 29.621 30.147L29.628 30.148H25.199L25.184 30.149L25.168 30.148H25.169H19.259C19.208 30.148 19.155 30.148 19.099 30.156C19.031 30.16 18.959 30.166 18.885 30.166H18.87C18.769 30.166 18.6685 30.1526 18.571 30.126L18.579 30.128L18.577 30.124ZM12.562 28.737C12.5621 28.6528 12.5787 28.5696 12.611 28.4919C12.6432 28.4142 12.6905 28.3436 12.75 28.2842C12.8095 28.2248 12.8801 28.1776 12.9579 28.1455C13.0356 28.1134 13.1189 28.0969 13.203 28.097C13.2871 28.097 13.3704 28.1137 13.4481 28.1459C13.5258 28.1782 13.5963 28.2254 13.6558 28.2849C13.7152 28.3444 13.7623 28.4151 13.7945 28.4928C13.8266 28.5705 13.8431 28.6538 13.843 28.738C13.8429 28.9078 13.7753 29.0707 13.6551 29.1907C13.5349 29.3107 13.3719 29.3781 13.202 29.378C13.0322 29.3778 12.8693 29.3102 12.7493 29.19C12.6292 29.0698 12.5619 28.9068 12.562 28.737Z" fill="#ED711F"/>
</g>
</g>
<defs>
<clipPath id="clip0_289_615">
<rect width="25" height="25" fill="white" transform="translate(8 7.5)"/>
</clipPath>
<clipPath id="clip1_289_615">
<rect width="27" height="24" fill="white" transform="translate(7 8)"/>
</clipPath>
</defs>
</svg>
