<svg width="145" height="145" viewBox="0 0 145 145" fill="none" xmlns="http://www.w3.org/2000/svg">
<g clip-path="url(#clip0_8_2202)">
<path d="M0.5 0.609375H144.5V144.609H0.5V0.609375Z" fill="white"/>
<path d="M17.9541 20.2461H48.4996H17.9541ZM52.8632 20.2461H57.2268H52.8632ZM61.5905 20.2461H74.6814H61.5905ZM79.045 20.2461H83.4086H79.045ZM87.7723 20.2461H92.1359H87.7723ZM96.4996 20.2461H127.045H96.4996ZM17.9541 24.6097H22.3177H17.9541ZM44.1359 24.6097H48.4996H44.1359ZM52.8632 24.6097H57.2268H52.8632ZM70.3177 24.6097H74.6814H70.3177ZM87.7723 24.6097H92.1359H87.7723ZM96.4996 24.6097H100.863H96.4996ZM122.681 24.6097H127.045H122.681ZM17.9541 28.9734H22.3177H17.9541ZM26.6814 28.9734H39.7723H26.6814ZM44.1359 28.9734H48.4996H44.1359ZM52.8632 28.9734H65.9541H52.8632ZM74.6814 28.9734H92.1359H74.6814ZM96.4996 28.9734H100.863H96.4996ZM105.227 28.9734H118.318H105.227ZM122.681 28.9734H127.045H122.681ZM17.9541 33.337H22.3177H17.9541ZM26.6814 33.337H39.7723H26.6814ZM44.1359 33.337H48.4996H44.1359ZM57.2268 33.337H61.5905H57.2268ZM65.9541 33.337H79.045H65.9541ZM87.7723 33.337H92.1359H87.7723ZM96.4996 33.337H100.863H96.4996ZM105.227 33.337H118.318H105.227ZM122.681 33.337H127.045H122.681ZM17.9541 37.7006H22.3177H17.9541ZM26.6814 37.7006H39.7723H26.6814ZM44.1359 37.7006H48.4996H44.1359ZM52.8632 37.7006H65.9541H52.8632ZM70.3177 37.7006H74.6814H70.3177ZM87.7723 37.7006H92.1359H87.7723ZM96.4996 37.7006H100.863H96.4996ZM105.227 37.7006H118.318H105.227ZM122.681 37.7006H127.045H122.681ZM17.9541 42.0643H22.3177H17.9541ZM44.1359 42.0643H48.4996H44.1359ZM65.9541 42.0643H79.045H65.9541ZM87.7723 42.0643H92.1359H87.7723ZM96.4996 42.0643H100.863H96.4996ZM122.681 42.0643H127.045H122.681ZM17.9541 46.4279H48.4996H17.9541ZM52.8632 46.4279H57.2268H52.8632ZM61.5905 46.4279H65.9541H61.5905ZM70.3177 46.4279H74.6814H70.3177ZM79.045 46.4279H83.4086H79.045ZM87.7723 46.4279H92.1359H87.7723ZM96.4996 46.4279H127.045H96.4996ZM57.2268 50.7915H61.5905H57.2268ZM65.9541 50.7915H70.3177H65.9541ZM74.6814 50.7915H83.4086H74.6814ZM87.7723 50.7915H92.1359H87.7723ZM17.9541 55.1552H22.3177H17.9541ZM31.045 55.1552H61.5905H31.045ZM70.3177 55.1552H74.6814H70.3177ZM79.045 55.1552H87.7723H79.045ZM92.1359 55.1552H96.4996H92.1359ZM105.227 55.1552H109.59H105.227ZM113.954 55.1552H127.045H113.954ZM17.9541 59.5188H26.6814H17.9541ZM31.045 59.5188H35.4086H31.045ZM39.7723 59.5188H44.1359H39.7723ZM48.4996 59.5188H52.8632H48.4996ZM65.9541 59.5188H70.3177H65.9541ZM83.4086 59.5188H87.7723H83.4086ZM92.1359 59.5188H96.4996H92.1359ZM100.863 59.5188H122.681H100.863ZM17.9541 63.8825H26.6814H17.9541ZM31.045 63.8825H35.4086H31.045ZM39.7723 63.8825H57.2268H39.7723ZM65.9541 63.8825H74.6814H65.9541ZM83.4086 63.8825H87.7723H83.4086ZM92.1359 63.8825H100.863H92.1359ZM109.59 63.8825H113.954H109.59ZM122.681 63.8825H127.045H122.681ZM22.3177 68.2461H26.6814H22.3177ZM31.045 68.2461H35.4086H31.045ZM39.7723 68.2461H44.1359H39.7723ZM48.4996 68.2461H61.5905H48.4996ZM65.9541 68.2461H70.3177H65.9541ZM79.045 68.2461H92.1359H79.045ZM100.863 68.2461H105.227H100.863ZM109.59 68.2461H127.045H109.59ZM31.045 72.6097H39.7723H31.045ZM44.1359 72.6097H65.9541H44.1359ZM70.3177 72.6097H74.6814H70.3177ZM79.045 72.6097H87.7723H79.045ZM92.1359 72.6097H105.227H92.1359ZM122.681 72.6097H127.045H122.681ZM17.9541 76.9734H22.3177H17.9541ZM26.6814 76.9734H31.045H26.6814ZM48.4996 76.9734H61.5905H48.4996ZM79.045 76.9734H92.1359H79.045ZM105.227 76.9734H109.59H105.227ZM118.318 76.9734H122.681H118.318ZM17.9541 81.337H26.6814H17.9541ZM35.4086 81.337H52.8632H35.4086ZM57.2268 81.337H61.5905H57.2268ZM65.9541 81.337H74.6814H65.9541ZM79.045 81.337H87.7723H79.045ZM92.1359 81.337H96.4996H92.1359ZM105.227 81.337H127.045H105.227ZM17.9541 85.7006H22.3177H17.9541ZM31.045 85.7006H44.1359H31.045ZM48.4996 85.7006H52.8632H48.4996ZM57.2268 85.7006H70.3177H57.2268ZM83.4086 85.7006H87.7723H83.4086ZM100.863 85.7006H105.227H100.863ZM109.59 85.7006H118.318H109.59ZM122.681 85.7006H127.045H122.681ZM17.9541 90.0643H22.3177H17.9541ZM26.6814 90.0643H31.045H26.6814ZM39.7723 90.0643H48.4996H39.7723ZM61.5905 90.0643H65.9541H61.5905ZM70.3177 90.0643H74.6814H70.3177ZM79.045 90.0643H83.4086H79.045ZM87.7723 90.0643H109.59H87.7723ZM113.954 90.0643H122.681H113.954ZM52.8632 94.4279H57.2268H52.8632ZM61.5905 94.4279H74.6814H61.5905ZM79.045 94.4279H83.4086H79.045ZM87.7723 94.4279H92.1359H87.7723ZM105.227 94.4279H109.59H105.227ZM113.954 94.4279H122.681H113.954ZM17.9541 98.7915H48.4996H17.9541ZM52.8632 98.7915H61.5905H52.8632ZM65.9541 98.7915H83.4086H65.9541ZM87.7723 98.7915H92.1359H87.7723ZM96.4996 98.7915H100.863H96.4996ZM105.227 98.7915H109.59H105.227ZM122.681 98.7915H127.045H122.681ZM17.9541 103.155H22.3177H17.9541ZM44.1359 103.155H48.4996H44.1359ZM52.8632 103.155H57.2268H52.8632ZM61.5905 103.155H65.9541H61.5905ZM70.3177 103.155H83.4086H70.3177ZM87.7723 103.155H92.1359H87.7723ZM105.227 103.155H109.59H105.227ZM118.318 103.155H127.045H118.318ZM17.9541 107.519H22.3177H17.9541ZM26.6814 107.519H39.7723H26.6814ZM44.1359 107.519H48.4996H44.1359ZM52.8632 107.519H57.2268H52.8632ZM74.6814 107.519H79.045H74.6814ZM83.4086 107.519H109.59H83.4086ZM118.318 107.519H127.045H118.318ZM17.9541 111.882H22.3177H17.9541ZM26.6814 111.882H39.7723H26.6814ZM44.1359 111.882H48.4996H44.1359ZM52.8632 111.882H65.9541H52.8632ZM70.3177 111.882H74.6814H70.3177ZM83.4086 111.882H100.863H83.4086ZM118.318 111.882H127.045H118.318ZM17.9541 116.246H22.3177H17.9541ZM26.6814 116.246H39.7723H26.6814ZM44.1359 116.246H48.4996H44.1359ZM57.2268 116.246H61.5905H57.2268ZM70.3177 116.246H83.4086H70.3177ZM92.1359 116.246H96.4996H92.1359ZM105.227 116.246H127.045H105.227ZM17.9541 120.61H22.3177H17.9541ZM44.1359 120.61H48.4996H44.1359ZM57.2268 120.61H61.5905H57.2268ZM70.3177 120.61H74.6814H70.3177ZM100.863 120.61H109.59H100.863ZM113.954 120.61H127.045H113.954ZM17.9541 124.973H48.4996H17.9541ZM52.8632 124.973H65.9541H52.8632ZM79.045 124.973H83.4086H79.045ZM87.7723 124.973H92.1359H87.7723ZM96.4996 124.973H100.863H96.4996ZM109.59 124.973H113.954H109.59ZM122.681 124.973H127.045H122.681Z" fill="black"/>
<path d="M17.9541 20.2461H48.4996M52.8632 20.2461H57.2268M61.5905 20.2461H74.6814M79.045 20.2461H83.4086M87.7723 20.2461H92.1359M96.4996 20.2461H127.045M17.9541 24.6097H22.3177M44.1359 24.6097H48.4996M52.8632 24.6097H57.2268M70.3177 24.6097H74.6814M87.7723 24.6097H92.1359M96.4996 24.6097H100.863M122.681 24.6097H127.045M17.9541 28.9734H22.3177M26.6814 28.9734H39.7723M44.1359 28.9734H48.4996M52.8632 28.9734H65.9541M74.6814 28.9734H92.1359M96.4996 28.9734H100.863M105.227 28.9734H118.318M122.681 28.9734H127.045M17.9541 33.337H22.3177M26.6814 33.337H39.7723M44.1359 33.337H48.4996M57.2268 33.337H61.5905M65.9541 33.337H79.045M87.7723 33.337H92.1359M96.4996 33.337H100.863M105.227 33.337H118.318M122.681 33.337H127.045M17.9541 37.7006H22.3177M26.6814 37.7006H39.7723M44.1359 37.7006H48.4996M52.8632 37.7006H65.9541M70.3177 37.7006H74.6814M87.7723 37.7006H92.1359M96.4996 37.7006H100.863M105.227 37.7006H118.318M122.681 37.7006H127.045M17.9541 42.0643H22.3177M44.1359 42.0643H48.4996M65.9541 42.0643H79.045M87.7723 42.0643H92.1359M96.4996 42.0643H100.863M122.681 42.0643H127.045M17.9541 46.4279H48.4996M52.8632 46.4279H57.2268M61.5905 46.4279H65.9541M70.3177 46.4279H74.6814M79.045 46.4279H83.4086M87.7723 46.4279H92.1359M96.4996 46.4279H127.045M57.2268 50.7915H61.5905M65.9541 50.7915H70.3177M74.6814 50.7915H83.4086M87.7723 50.7915H92.1359M17.9541 55.1552H22.3177M31.045 55.1552H61.5905M70.3177 55.1552H74.6814M79.045 55.1552H87.7723M92.1359 55.1552H96.4996M105.227 55.1552H109.59M113.954 55.1552H127.045M17.9541 59.5188H26.6814M31.045 59.5188H35.4086M39.7723 59.5188H44.1359M48.4996 59.5188H52.8632M65.9541 59.5188H70.3177M83.4086 59.5188H87.7723M92.1359 59.5188H96.4996M100.863 59.5188H122.681M17.9541 63.8825H26.6814M31.045 63.8825H35.4086M39.7723 63.8825H57.2268M65.9541 63.8825H74.6814M83.4086 63.8825H87.7723M92.1359 63.8825H100.863M109.59 63.8825H113.954M122.681 63.8825H127.045M22.3177 68.2461H26.6814M31.045 68.2461H35.4086M39.7723 68.2461H44.1359M48.4996 68.2461H61.5905M65.9541 68.2461H70.3177M79.045 68.2461H92.1359M100.863 68.2461H105.227M109.59 68.2461H127.045M31.045 72.6097H39.7723M44.1359 72.6097H65.9541M70.3177 72.6097H74.6814M79.045 72.6097H87.7723M92.1359 72.6097H105.227M122.681 72.6097H127.045M17.9541 76.9734H22.3177M26.6814 76.9734H31.045M48.4996 76.9734H61.5905M79.045 76.9734H92.1359M105.227 76.9734H109.59M118.318 76.9734H122.681M17.9541 81.337H26.6814M35.4086 81.337H52.8632M57.2268 81.337H61.5905M65.9541 81.337H74.6814M79.045 81.337H87.7723M92.1359 81.337H96.4996M105.227 81.337H127.045M17.9541 85.7006H22.3177M31.045 85.7006H44.1359M48.4996 85.7006H52.8632M57.2268 85.7006H70.3177M83.4086 85.7006H87.7723M100.863 85.7006H105.227M109.59 85.7006H118.318M122.681 85.7006H127.045M17.9541 90.0643H22.3177M26.6814 90.0643H31.045M39.7723 90.0643H48.4996M61.5905 90.0643H65.9541M70.3177 90.0643H74.6814M79.045 90.0643H83.4086M87.7723 90.0643H109.59M113.954 90.0643H122.681M52.8632 94.4279H57.2268M61.5905 94.4279H74.6814M79.045 94.4279H83.4086M87.7723 94.4279H92.1359M105.227 94.4279H109.59M113.954 94.4279H122.681M17.9541 98.7916H48.4996M52.8632 98.7916H61.5905M65.9541 98.7916H83.4086M87.7723 98.7916H92.1359M96.4996 98.7916H100.863M105.227 98.7916H109.59M122.681 98.7916H127.045M17.9541 103.155H22.3177M44.1359 103.155H48.4996M52.8632 103.155H57.2268M61.5905 103.155H65.9541M70.3177 103.155H83.4086M87.7723 103.155H92.1359M105.227 103.155H109.59M118.318 103.155H127.045M17.9541 107.519H22.3177M26.6814 107.519H39.7723M44.1359 107.519H48.4996M52.8632 107.519H57.2268M74.6814 107.519H79.045M83.4086 107.519H109.59M118.318 107.519H127.045M17.9541 111.882H22.3177M26.6814 111.882H39.7723M44.1359 111.882H48.4996M52.8632 111.882H65.9541M70.3177 111.882H74.6814M83.4086 111.882H100.863M118.318 111.882H127.045M17.9541 116.246H22.3177M26.6814 116.246H39.7723M44.1359 116.246H48.4996M57.2268 116.246H61.5905M70.3177 116.246H83.4086M92.1359 116.246H96.4996M105.227 116.246H127.045M17.9541 120.61H22.3177M44.1359 120.61H48.4996M57.2268 120.61H61.5905M70.3177 120.61H74.6814M100.863 120.61H109.59M113.954 120.61H127.045M17.9541 124.973H48.4996M52.8632 124.973H65.9541M79.045 124.973H83.4086M87.7723 124.973H92.1359M96.4996 124.973H100.863M109.59 124.973H113.954M122.681 124.973H127.045" stroke="black" stroke-width="4.36364"/>
</g>
<defs>
<clipPath id="clip0_8_2202">
<rect x="0.5" y="0.609375" width="144" height="144" rx="16" fill="white"/>
</clipPath>
</defs>
</svg>
