<svg width="25" height="26" viewBox="0 0 25 26" fill="none" xmlns="http://www.w3.org/2000/svg">
<g clip-path="url(#clip0_8_1199)">
<mask id="mask0_8_1199" style="mask-type:luminance" maskUnits="userSpaceOnUse" x="0" y="1" width="25" height="24">
<path d="M0.78125 1.28125H24.2188V24.7188H0.78125V1.28125Z" fill="white"/>
</mask>
<g mask="url(#mask0_8_1199)">
<path d="M19.2793 17.6478L12.4981 24.4291L5.71993 17.6478C4.37918 16.307 3.46614 14.5986 3.09627 12.7389C2.72641 10.8791 2.91632 8.95141 3.642 7.19958C4.36768 5.44774 5.59653 3.95043 7.17317 2.89698C8.74981 1.84353 10.6034 1.28125 12.4996 1.28125C14.3958 1.28125 16.2494 1.84353 17.8261 2.89698C19.4027 3.95043 20.6315 5.44774 21.3572 7.19958C22.0829 8.95141 22.2728 10.8791 21.903 12.7389C21.5331 14.5986 20.6201 16.307 19.2793 17.6478ZM12.4981 15.1306C13.6283 15.1306 14.7123 14.6816 15.5115 13.8824C16.3108 13.0832 16.7598 11.9992 16.7598 10.8689C16.7598 9.73865 16.3108 8.65467 15.5115 7.85544C14.7123 7.05621 13.6283 6.60721 12.4981 6.60721C11.3678 6.60721 10.2838 7.05621 9.48456 7.85544C8.68533 8.65467 8.23633 9.73865 8.23633 10.8689C8.23633 11.9992 8.68533 13.0832 9.48456 13.8824C10.2838 14.6816 11.3678 15.1306 12.4981 15.1306ZM12.4996 12.9994C12.215 13.0071 11.9317 12.9577 11.6665 12.8541C11.4012 12.7505 11.1595 12.5948 10.9554 12.3962C10.7514 12.1976 10.5892 11.9602 10.4785 11.6978C10.3677 11.4355 10.3107 11.1537 10.3107 10.8689C10.3107 10.5842 10.3677 10.3023 10.4785 10.04C10.5892 9.77771 10.7514 9.54024 10.9554 9.34164C11.1595 9.14305 11.4012 8.98735 11.6665 8.88375C11.9317 8.78016 12.215 8.73075 12.4996 8.73846C13.0547 8.75349 13.5819 8.98455 13.9692 9.38245C14.3565 9.78035 14.5732 10.3137 14.5732 10.8689C14.5732 11.4242 14.3565 11.9575 13.9692 12.3554C13.5819 12.7533 13.0547 12.9844 12.4996 12.9994Z" fill="#ED711F"/>
</g>
</g>
<defs>
<clipPath id="clip0_8_1199">
<rect width="25" height="25" fill="white" transform="translate(0 0.5)"/>
</clipPath>
</defs>
</svg>
