<svg width="70" height="60" viewBox="0 0 70 60" fill="none" xmlns="http://www.w3.org/2000/svg">
<rect width="70" height="60" rx="13" fill="#ED711F"/>
<g clip-path="url(#clip0_301_1185)">
<g clip-path="url(#clip1_301_1185)">
<mask id="mask0_301_1185" style="mask-type:luminance" maskUnits="userSpaceOnUse" x="18" y="14" width="34" height="32">
<path d="M18 14H52V46H18V14Z" fill="white"/>
</mask>
<g mask="url(#mask0_301_1185)">
<path fill-rule="evenodd" clip-rule="evenodd" d="M24.5878 14.304C24.6639 14.2096 24.762 14.1331 24.8747 14.0804C24.9873 14.0276 25.1114 14.0001 25.2372 14H44.76C45.015 14 45.2564 14.112 45.4111 14.304L50.2901 20.4C50.3959 20.5318 50.4532 20.6924 50.4533 20.8576V42.1904C50.4533 43.2 50.0249 44.1696 49.2633 44.8848C48.4989 45.5998 47.4647 46.0007 46.3869 46H23.6103C22.5308 46 21.4972 45.6 20.7339 44.8848C20.3567 44.5316 20.0574 44.1118 19.8532 43.6494C19.649 43.187 19.5439 42.6912 19.5439 42.1904V20.8576C19.5439 20.6928 19.6 20.5312 19.7054 20.4L24.5878 14.304ZM25.6452 15.5232L21.1708 21.1104V42.192C21.1708 42.7984 21.4275 43.3792 21.8848 43.808C22.3438 44.2368 22.9643 44.4784 23.612 44.4784H46.3869C47.0329 44.4784 47.6534 44.2384 48.1124 43.808C48.5697 43.3792 48.8264 42.7984 48.8264 42.192V21.1104L44.3537 15.5232H25.6435H25.6452Z" fill="white"/>
<path fill-rule="evenodd" clip-rule="evenodd" d="M19.5439 20.8589C19.5439 20.4381 19.9077 20.0973 20.3582 20.0973H49.6407C49.7514 20.0905 49.8624 20.1052 49.9668 20.1404C50.0712 20.1757 50.1668 20.2307 50.2477 20.302C50.3287 20.3734 50.3932 20.4597 50.4373 20.5555C50.4814 20.6512 50.5041 20.7545 50.5041 20.8589C50.5041 20.9633 50.4814 21.0666 50.4373 21.1623C50.3932 21.2581 50.3287 21.3444 50.2477 21.4158C50.1668 21.4871 50.0712 21.5421 49.9668 21.5774C49.8624 21.6126 49.7514 21.6273 49.6407 21.6205H20.3582C20.2516 21.6209 20.1459 21.6015 20.0473 21.5635C19.9486 21.5254 19.8589 21.4694 19.7833 21.3987C19.7076 21.3279 19.6475 21.2438 19.6065 21.1512C19.5654 21.0586 19.5442 20.9593 19.5439 20.8589ZM28.4825 26.1933C28.9313 26.1933 29.2951 26.5341 29.2951 26.9549C29.2951 28.3693 29.8952 29.7261 30.9628 30.7261C32.0324 31.7283 33.4801 32.2909 34.9893 32.2909C36.4985 32.2909 37.9462 31.7283 39.0157 30.7261C39.544 30.2319 39.9633 29.6443 40.2495 28.9972C40.5357 28.35 40.6832 27.6559 40.6834 26.9549C40.6834 26.7519 40.7691 26.5571 40.9217 26.4135C41.0742 26.27 41.2812 26.1893 41.4969 26.1893C41.7126 26.1893 41.9195 26.27 42.0721 26.4135C42.2246 26.5571 42.3103 26.7519 42.3103 26.9549C42.31 27.8561 42.1204 28.7483 41.7525 29.5802C41.3846 30.4122 40.8457 31.1676 40.1666 31.8029C38.7914 33.0909 36.9302 33.8139 34.9901 33.8139C33.0501 33.8139 31.1889 33.0909 29.8136 31.8029C29.1346 31.1676 28.5957 30.4122 28.2278 29.5802C27.8599 28.7483 27.6703 27.8561 27.6699 26.9549C27.6699 26.5341 28.0337 26.1933 28.4825 26.1933Z" fill="white"/>
</g>
</g>
</g>
<defs>
<clipPath id="clip0_301_1185">
<rect width="34" height="32" fill="white" transform="translate(18 14)"/>
</clipPath>
<clipPath id="clip1_301_1185">
<rect width="34" height="32" fill="white" transform="translate(18 14)"/>
</clipPath>
</defs>
</svg>
